<svg xmlns:xlink="http://www.w3.org/1999/xlink" xmlns="http://www.w3.org/2000/svg" width="282" height="161" viewBox="0 0 282 161" fill="none"><path d="M181.782 41.1413C193.143 41.1413 202.353 31.9997 202.353 20.723C202.353 9.44628 193.143 0.304688 181.782 0.304688C170.421 0.304688 161.211 9.44628 161.211 20.723C161.211 31.9997 170.421 41.1413 181.782 41.1413Z" fill="#FF924E"></path><path d="M161.868 37.2301C161.868 37.2301 162.092 37.2301 162.464 37.3733C162.983 37.5531 163.435 37.8857 163.761 38.3268C163.983 38.6332 164.135 38.9851 164.204 39.3572C164.279 39.7817 164.229 40.2187 164.061 40.6164C163.592 41.8804 162.187 42.5256 160.922 42.056C160.255 41.8085 159.73 41.2829 159.482 40.6164C159.309 40.2208 159.256 39.7831 159.329 39.3572C159.396 38.9851 159.546 38.6325 159.769 38.3268C160.087 37.8739 160.536 37.5289 161.056 37.3394C161.252 37.2792 161.451 37.2301 161.652 37.1914C161.652 37.1914 161.595 37.1914 161.49 37.1914C161.424 37.1935 161.358 37.2018 161.294 37.2149C161.205 37.2274 161.118 37.2467 161.032 37.2723C160.085 37.5724 159.374 38.36 159.172 39.3329C159.088 39.7893 159.14 40.2602 159.32 40.6876C159.512 41.1619 159.834 41.572 160.25 41.8707C161.143 42.5829 162.409 42.5829 163.302 41.8707C163.711 41.5658 164.029 41.155 164.222 40.6834C164.401 40.2554 164.449 39.7845 164.361 39.3288C164.153 38.3566 163.436 37.5717 162.486 37.2778C162.4 37.2516 162.313 37.2322 162.224 37.2204C162.159 37.2142 162.093 37.2142 162.028 37.2204C161.925 37.2204 161.868 37.2204 161.868 37.2301Z" fill="#263238"></path><path d="M155.819 44.0401C155.819 44.0401 155.958 44.0636 156.191 44.1452C156.514 44.2669 156.791 44.4833 156.988 44.7654C157.302 45.1748 157.371 45.7218 157.169 46.1961C156.878 46.9761 156.009 47.3717 155.229 47.0805C154.821 46.9277 154.498 46.6055 154.345 46.1961C154.14 45.7231 154.206 45.1762 154.517 44.7654C154.711 44.4799 154.99 44.2613 155.313 44.1403C155.542 44.0546 155.685 44.0497 155.68 44.0352C155.55 44.0103 155.414 44.0221 155.289 44.0684C154.681 44.253 154.223 44.7537 154.092 45.3753C154.035 45.6671 154.066 45.9693 154.183 46.2431C154.498 47.1124 155.458 47.5618 156.327 47.2465C156.794 47.0771 157.162 46.7099 157.33 46.2431C157.442 45.9679 157.472 45.6664 157.416 45.3753C157.361 45.1243 157.252 44.8878 157.097 44.6838C156.875 44.39 156.563 44.1777 156.209 44.0781C156.085 44.0352 155.951 44.0221 155.819 44.0401Z" fill="#263238"></path><path d="M162.118 24.0171C162.118 24.0171 162.118 23.9023 162.118 23.6831C162.118 23.4639 162.075 23.1347 162.042 22.7295C162.042 22.5152 162.004 22.2766 161.979 22.0138C161.955 21.7511 161.979 21.4606 161.979 21.146C161.979 20.8314 161.979 20.4926 161.979 20.1351C161.978 19.9484 161.991 19.7617 162.017 19.577C162.041 19.3862 162.06 19.1905 162.084 18.9858C162.286 17.0137 162.788 15.083 163.573 13.2623C164.588 10.8435 166.061 8.64388 167.913 6.78516L168.695 6.00793C168.972 5.75968 169.273 5.5308 169.563 5.28739L170.006 4.92505C170.156 4.79782 170.316 4.68096 170.483 4.57654L171.466 3.92309C171.633 3.81314 171.795 3.69904 171.967 3.59394L172.496 3.30766L173.579 2.73511C173.946 2.5491 174.343 2.4108 174.728 2.25798L175.31 2.01942C175.41 1.97654 175.506 1.93367 175.606 1.90048L175.911 1.80989C176.734 1.5333 177.576 1.3134 178.429 1.1516C178.863 1.07553 179.297 0.970425 179.741 0.913031L181.091 0.794095C181.32 0.794095 181.568 0.741542 181.777 0.741542H182.464C182.941 0.741542 183.389 0.741542 183.857 0.769893C184.803 0.843883 185.743 0.980797 186.671 1.17995L187.377 1.32793L187.73 1.40883L188.078 1.51878L189.47 1.96686C189.947 2.13835 190.381 2.34856 190.839 2.53942C191.063 2.64452 191.316 2.72543 191.521 2.8492L192.179 3.2067C193.071 3.69351 193.93 4.2384 194.75 4.83793C195.148 5.15601 195.544 5.48516 195.938 5.82537L196.239 6.07362C196.334 6.15936 196.42 6.25479 196.515 6.34537L197.063 6.88888L197.617 7.44208L198.117 8.05266L198.623 8.66325L198.871 8.97303C198.952 9.07814 199.019 9.19224 199.095 9.30218L199.982 10.6326L200.746 12.0633C202.724 16.0082 203.357 20.4926 202.548 24.8317C202.434 25.3613 202.324 25.8855 202.21 26.4103L201.732 27.9316L201.609 28.3133L201.456 28.6756L201.141 29.4052L200.827 30.1298L200.45 30.8165L200.073 31.5031L199.887 31.842L199.668 32.1663L198.8 33.4448C198.177 34.247 197.501 35.0069 196.777 35.7198L196.224 36.2398C196.048 36.4162 195.842 36.5593 195.656 36.717C195.265 37.0268 194.893 37.3559 194.502 37.6712L193.281 38.4865L192.98 38.6919C192.875 38.7541 192.766 38.8067 192.661 38.8634L192.022 39.207C191.187 39.6537 190.324 40.0444 189.437 40.3756C188.998 40.5333 188.545 40.6522 188.107 40.7905L187.443 40.9911C187.224 41.0533 186.995 41.0817 186.775 41.1294L185.445 41.3866C185.002 41.4537 184.558 41.4772 184.119 41.5201C183.253 41.6017 182.383 41.6238 181.515 41.5871H181.195C181.09 41.5871 180.986 41.5871 180.881 41.554L180.251 41.4869C179.836 41.4343 179.417 41.406 179.011 41.3341L177.814 41.0768L177.223 40.953L176.651 40.7767L175.53 40.4192C175.346 40.3632 175.166 40.2947 174.991 40.2138L174.461 39.985C174.113 39.8321 173.765 39.6938 173.426 39.5369L172.472 39.0072C170.18 37.73 168.156 36.0234 166.51 33.9801C166.329 33.756 166.143 33.541 165.971 33.3218C165.8 33.1026 165.666 32.8446 165.494 32.64L165.06 31.9485C164.989 31.8385 164.912 31.7341 164.85 31.6242C164.788 31.5142 164.731 31.405 164.674 31.295L163.997 30.0406C163.797 29.6354 163.653 29.2295 163.487 28.8575C163.411 28.6667 163.334 28.4855 163.258 28.3092C163.182 28.139 163.118 27.9634 163.067 27.7843C162.962 27.4406 162.867 27.1163 162.771 26.8308C162.676 26.5445 162.59 26.2582 162.528 26.001L162.385 25.295C162.299 24.8752 162.237 24.5558 162.189 24.3414C162.142 24.127 162.118 24.0171 162.118 24.0171C162.118 24.0171 162.118 24.127 162.17 24.3462C162.223 24.5654 162.27 24.8897 162.347 25.2998C162.389 25.5142 162.432 25.7479 162.48 26.0106C162.528 26.2734 162.633 26.5452 162.719 26.8453L163.005 27.7988C163.056 27.9793 163.12 28.1563 163.196 28.3285L163.42 28.8817C163.582 29.2537 163.725 29.6638 163.925 30.069L164.593 31.3282C164.651 31.443 164.712 31.5522 164.77 31.6622C164.827 31.7721 164.908 31.8766 164.979 31.9865L165.418 32.6496C165.571 32.8751 165.73 33.1046 165.895 33.3363C166.067 33.5555 166.253 33.7754 166.434 33.9994C168.073 36.067 170.096 37.7999 172.391 39.1026L173.345 39.6371C173.684 39.7996 174.037 39.9379 174.39 40.1143L174.92 40.3383C175.095 40.4227 175.277 40.4932 175.463 40.5478L176.594 40.9102L177.167 41.0913L177.763 41.22L178.969 41.4772C179.374 41.5533 179.794 41.5823 180.214 41.6349L180.848 41.7061C180.953 41.7061 181.062 41.7344 181.167 41.7393H181.487C182.362 41.778 183.239 41.7572 184.11 41.677C184.554 41.6342 185.002 41.6148 185.451 41.5436L186.791 41.2863C187.015 41.2386 187.268 41.2103 187.468 41.148L188.136 40.9475C188.579 40.8092 189.033 40.6903 189.476 40.5326C190.373 40.1993 191.246 39.8059 192.09 39.3543L192.729 39.0107C192.838 38.9533 192.948 38.9007 193.053 38.8343L193.358 38.6338L194.589 37.8137C194.985 37.5177 195.361 37.1886 195.752 36.8594C195.943 36.6969 196.153 36.5496 196.33 36.3823L196.868 35.8478C197.597 35.1272 198.278 34.3611 198.91 33.5534L199.787 32.261L200.006 31.9415L200.197 31.593L200.579 30.9064L200.961 30.2101L201.275 29.4805L201.59 28.7462L201.748 28.379L201.871 27.9973C202.038 27.4821 202.201 26.9718 202.349 26.4567L202.692 24.8635C203.504 20.487 202.864 15.9654 200.87 11.9859L200.102 10.5552C199.801 10.1071 199.506 9.6583 199.205 9.21505L198.981 8.88107L198.728 8.57128L198.218 7.95585L197.712 7.34043L197.154 6.77755L196.634 6.19117L196.353 5.91458L196.052 5.66149L194.85 4.6692C194.024 4.06415 193.157 3.5158 192.256 3.0283L191.592 2.66596C191.368 2.54218 191.115 2.46058 190.901 2.35617C190.424 2.16048 189.99 1.95096 189.523 1.77878L188.092 1.30165L187.739 1.1917L187.387 1.11564L186.671 0.962818C185.737 0.763669 184.79 0.626755 183.838 0.552765C183.361 0.524414 182.884 0.552765 182.407 0.524414H181.711C181.482 0.524414 181.234 0.557606 181.024 0.576967L179.665 0.700744C179.217 0.758138 178.778 0.863244 178.343 0.939308C177.484 1.10527 176.636 1.32862 175.806 1.60729L175.497 1.70271C175.396 1.7359 175.296 1.78362 175.201 1.82165L174.647 2.08856C174.261 2.25521 173.865 2.39835 173.493 2.56569L172.406 3.14723L171.871 3.43351L171.366 3.7675L170.383 4.4258C170.216 4.53229 170.057 4.65053 169.906 4.77846L169.463 5.14564C169.167 5.39388 168.867 5.62277 168.585 5.87032L167.822 6.66692C165.966 8.54293 164.49 10.7598 163.476 13.1967C162.701 15.0291 162.209 16.9687 162.017 18.9485C162.017 19.149 161.974 19.3488 161.95 19.5397C161.925 19.7243 161.914 19.911 161.916 20.0977C161.916 20.4601 161.916 20.7989 161.916 21.1135C161.916 21.4281 161.916 21.7193 161.916 21.9813C161.916 22.2434 161.964 22.4868 161.988 22.7019C162.026 23.1264 162.059 23.4508 162.083 23.6554C162.109 23.8643 162.118 24.0171 162.118 24.0171Z" fill="#263238"></path><path d="M157.076 75.5201C155.671 70.0269 151.127 65.8994 145.524 65.0274C148.493 61.0541 147.679 55.4261 143.706 52.4569C142.408 51.4874 140.873 50.8865 139.262 50.7184C141.806 46.4395 140.4 40.9076 136.121 38.3629C135.445 37.9612 134.72 37.6493 133.963 37.4356C132.331 36.9585 130.538 36.9585 129.107 36.0575C127.538 35.07 126.751 33.248 125.625 31.7647C122.568 27.9719 117.339 26.7141 112.891 28.7028L109.047 36.7441L121.123 75.6397C122.368 79.6462 123.689 83.7813 126.484 86.9055C129.556 90.3297 134.115 92.1518 138.675 92.6863C143.106 93.2209 147.833 92.6006 151.505 90.058C156.094 86.7554 158.283 81.043 157.076 75.5201Z" fill="#333333"></path><path d="M145.013 67.6551C145.733 67.6717 146.452 67.5915 147.15 67.4166C147.97 67.1995 148.749 66.8516 149.458 66.3863C150.403 65.766 151.206 64.9535 151.814 64.0013C152.55 62.8272 152.956 61.476 152.988 60.0903C153.031 58.4853 152.654 56.8976 151.895 55.4829C151.03 53.9111 149.732 52.6201 148.155 51.7626C146.445 50.8236 144.515 50.3575 142.565 50.4128H142.36L142.451 50.2317C143.489 48.1109 143.686 45.6761 143.004 43.4157C142.308 41.1331 140.74 39.2169 138.64 38.0836C138.145 37.8063 137.624 37.5781 137.085 37.4018C136.56 37.2206 136.018 37.0941 135.468 37.0249C134.39 36.8624 133.245 36.9675 132.225 36.4904C131.732 36.2546 131.312 35.8909 131.009 35.4366C130.717 35.0065 130.468 34.5501 130.264 34.0723C129.895 33.1747 129.424 32.3235 128.857 31.5352C127.825 30.1266 126.473 28.9822 124.913 28.1967C123.623 27.5536 122.217 27.1767 120.778 27.0903C119.691 27.0294 118.6 27.1221 117.54 27.3669C116.869 27.5211 116.214 27.7382 115.584 28.0155C115.365 28.1061 115.207 28.1967 115.107 28.2444C115.052 28.2727 114.994 28.2969 114.936 28.3156C114.985 28.279 115.037 28.2465 115.093 28.2202C115.203 28.1628 115.355 28.0674 115.57 27.9719C116.195 27.6725 116.849 27.4374 117.521 27.2708C118.589 27.0045 119.69 26.8967 120.788 26.9513C122.25 27.0239 123.682 27.3945 124.995 28.039C126.589 28.828 127.972 29.9835 129.03 31.4114C129.607 32.2087 130.087 33.0717 130.461 33.9824C130.876 34.8792 131.372 35.8521 132.326 36.2857C133.28 36.72 134.386 36.6294 135.503 36.7628C136.067 36.8354 136.623 36.9648 137.162 37.1494C137.714 37.3299 138.248 37.5629 138.755 37.8457C140.913 39.0102 142.525 40.9768 143.244 43.3209C143.941 45.6423 143.737 48.1406 142.671 50.3181L142.556 50.1418C144.554 50.0879 146.53 50.5684 148.28 51.5344C149.89 52.4154 151.215 53.7396 152.095 55.3501C152.864 56.8008 153.241 58.4265 153.187 60.0674C153.142 61.4829 152.717 62.8604 151.957 64.0546C151.331 65.0226 150.506 65.8469 149.538 66.4727C148.812 66.9346 148.014 67.2748 147.178 67.4788C146.655 67.6081 146.118 67.6738 145.58 67.6745H145.16L145.013 67.6551Z" fill="#333333"></path><path d="M96.5391 141.477C97.9698 140.127 98.6564 138.182 99.258 136.307C101.087 130.638 102.595 124.87 103.775 119.031L98.0513 105.677L96.5391 141.477Z" fill="#FF924E"></path><path d="M152.793 79.14L133.051 75.3672L96.3262 86.5901L97.0799 115.369L103.399 144.998H154.514L156.494 107.929L152.793 79.14Z" fill="#FF924E"></path><path d="M152.791 79.084C152.791 79.084 161.252 80.6481 164.758 84.8075C168.264 88.9668 202.695 122.549 204.312 132.255L176.649 130.18L156.493 107.887L152.791 79.084Z" fill="#FF924E"></path><path d="M156.076 104.652C155.999 104.388 155.944 104.119 155.91 103.846C155.819 103.321 155.7 102.563 155.595 101.614C155.309 99.1505 155.206 96.6702 155.29 94.1926C155.339 92.8262 155.461 91.4632 155.657 90.11C155.821 89.0057 156.062 87.9138 156.378 86.8427L156.573 86.1941L156.788 85.6264C156.897 85.3201 157.025 85.0206 157.169 84.7295C157.276 84.4751 157.405 84.231 157.556 84C157.474 84.2628 157.374 84.5193 157.255 84.7676C157.145 85.011 157.041 85.3159 156.921 85.6741C156.859 85.8504 156.793 86.0413 156.726 86.2418L156.544 86.8904C156.257 87.9595 156.037 89.0465 155.886 90.1432C155.702 91.4895 155.586 92.8441 155.538 94.2022C155.459 96.6702 155.535 99.1409 155.766 101.6C155.852 102.554 155.943 103.302 156.005 103.832C156.051 104.102 156.076 104.377 156.076 104.652Z" fill="#263238"></path><path d="M98.0525 119.947C98.1265 120.144 98.1804 120.346 98.215 120.553C98.3056 120.996 98.4245 121.554 98.5677 122.222C98.8636 123.687 99.2543 125.608 99.6886 127.736C100.123 129.863 100.543 131.833 100.862 133.235C101.015 133.898 101.143 134.456 101.249 134.894C101.309 135.095 101.351 135.301 101.372 135.51C101.282 135.321 101.209 135.125 101.153 134.924C101.029 134.537 100.872 133.969 100.676 133.278C100.314 131.88 99.8698 129.939 99.4314 127.788C98.9923 125.637 98.6251 123.676 98.3775 122.255C98.2586 121.545 98.1632 120.973 98.1058 120.572C98.0622 120.366 98.0449 120.157 98.0525 119.947Z" fill="#263238"></path><path d="M133.615 71.7133C133.615 71.7133 140.292 66.9724 137.183 56.7605C135.632 51.6808 131.635 44.0689 128.159 37.9492C125.034 32.436 117.828 27.1032 110.268 30.7951C110.268 30.7951 93.1554 37.6394 98.5255 50.6553L114.27 85.7208C116.761 91.2637 123.139 93.908 128.822 91.754C134.702 89.524 137.698 82.9825 135.546 77.0737L133.615 71.7133Z" fill="#F7D1B9"></path><path d="M128.922 47.9954C129.247 48.6509 128.992 49.4461 128.344 49.7884C127.731 50.1542 126.938 49.953 126.572 49.3396C126.567 49.3299 126.561 49.3209 126.555 49.3113C126.23 48.6544 126.485 47.8578 127.133 47.5134C127.747 47.149 128.54 47.3509 128.905 47.9649C128.911 47.9746 128.916 47.985 128.922 47.9954Z" fill="#263238"></path><path d="M129.292 44.6379C129.22 44.8716 127.965 44.6379 126.659 45.2768C125.352 45.9158 124.713 47.0415 124.494 46.9461C124.389 46.9129 124.404 46.5506 124.675 46.0444C125.049 45.3743 125.623 44.8378 126.316 44.5086C126.995 44.176 127.761 44.0674 128.506 44.1988C129.053 44.3136 129.335 44.5328 129.292 44.6379Z" fill="#263238"></path><path d="M116.573 53.6743C116.899 54.3313 116.643 55.1278 115.995 55.4722C115.381 55.8359 114.588 55.6326 114.225 55.0179C114.22 55.0103 114.216 55.0027 114.211 54.9951C113.887 54.3395 114.14 53.545 114.784 53.1972C115.397 52.8314 116.19 53.0326 116.556 53.646C116.562 53.6557 116.567 53.6654 116.573 53.6743Z" fill="#263238"></path><path d="M117.251 50.6975C117.175 50.9312 115.925 50.6975 114.618 51.3364C113.311 51.9754 112.672 53.0963 112.453 53.0057C112.348 52.9725 112.363 52.6102 112.634 52.0991C113.009 51.4325 113.58 50.898 114.27 50.5682C114.951 50.2356 115.718 50.127 116.465 50.2584C117.012 50.3732 117.289 50.5931 117.251 50.6975Z" fill="#263238"></path><path d="M125.714 57.7521C125.671 57.6809 126.415 57.1464 127.65 56.3214C127.97 56.1209 128.251 55.9017 128.199 55.6486C128.146 55.3955 127.846 55.076 127.493 54.7663C126.787 54.108 126.045 53.4213 125.265 52.7056C122.132 49.7488 119.69 47.2588 119.809 47.1301C119.928 47.0015 122.571 49.3 125.704 52.2527L127.893 54.3465C128.301 54.6473 128.589 55.0837 128.704 55.5774C128.723 55.863 128.609 56.1409 128.394 56.3311C128.235 56.4735 128.057 56.5939 127.865 56.6886C126.558 57.4181 125.738 57.8047 125.714 57.7521Z" fill="#263238"></path><path d="M133.616 71.7148C129.185 73.9525 124.22 74.9164 119.273 74.5002C119.273 74.5002 125.527 79.8516 134.579 74.3473L133.616 71.7148Z" fill="#FABC96"></path><path d="M127.323 62.5188C127.4 61.817 126.894 61.1856 126.193 61.1082C125.836 61.0688 125.48 61.1808 125.21 61.4173C125.019 60.9332 124.524 60.6421 124.008 60.7113C123.502 60.7915 123.065 61.1089 122.83 61.5653C122.374 62.4587 122.569 63.5471 123.307 64.2268C124.073 64.8706 125.154 64.9819 126.035 64.5082C126.892 64.0131 127.41 63.0893 127.385 62.0998" fill="#EB7741"></path><path d="M127.269 64.5317C127.055 64.632 126.468 63.1626 124.799 62.6239C123.129 62.0852 121.632 62.8625 121.536 62.6619C121.479 62.5762 121.775 62.2374 122.428 61.9559C123.282 61.6033 124.233 61.5625 125.113 61.8412C125.96 62.1094 126.67 62.6958 127.092 63.4772C127.393 64.0691 127.374 64.484 127.269 64.5317Z" fill="#263238"></path><path d="M110.45 50.0887C110.383 49.6738 111.747 49.1352 113.144 48.138C114.542 47.1409 115.529 46.0636 115.896 46.2634C116.068 46.3637 116.035 46.8069 115.734 47.4078C115.316 48.183 114.72 48.8468 113.993 49.344C113.285 49.8529 112.469 50.189 111.608 50.3266C110.927 50.4033 110.502 50.2837 110.45 50.0887Z" fill="#263238"></path><path d="M122.707 43.2578C122.778 42.8477 123.827 42.6852 124.901 42.1417C125.974 41.5982 126.77 40.9157 127.142 41.1114C127.309 41.2117 127.319 41.5885 127.071 42.065C126.34 43.3104 124.93 43.9922 123.499 43.7916C122.964 43.6921 122.682 43.4535 122.707 43.2578Z" fill="#263238"></path><path d="M113.41 84.2857C112.742 83.1696 111.979 82.0487 111.803 80.7612C111.626 79.4736 112.017 78.1805 111.96 76.8881C111.812 73.6305 108.951 71.2746 106.538 69.0854C104.125 66.8961 101.769 63.6959 102.913 60.6478C104.029 57.7 107.955 56.503 108.913 53.4937C109.7 51.0375 108.164 48.3089 108.851 45.8195C109.633 42.9913 112.838 41.6844 114.755 39.462C117.14 36.7098 118.838 32.2739 116.663 29.3745L115.118 28.979C114.164 27.3955 111.965 26.9474 110.21 27.5192C108.455 28.0918 107.085 29.4271 105.879 30.8578C104.672 32.2884 103.537 33.7579 102.006 34.7833C99.3871 36.5383 95.5383 37.0583 94.3745 39.9916C93.4203 42.434 94.9042 45.4959 93.4825 47.7038C92.3332 49.483 89.7955 49.8405 88.436 51.4669C87.4008 52.7116 87.2487 54.5101 87.6491 56.0791C88.0495 57.6481 88.9318 59.0456 89.8051 60.4148C85.9895 61.8455 82.0211 63.429 79.3408 66.5006C76.6606 69.5722 75.797 74.647 78.5733 77.6329C79.8083 78.9633 81.8067 80.3608 81.1394 82.0494C80.8082 82.6628 80.3276 83.1828 79.7419 83.5617C74.7293 87.6643 73.9915 95.0536 78.0941 100.066C82.1967 105.079 89.5859 105.817 94.5986 101.714C95.6289 100.87 96.5084 99.858 97.1986 98.7191C96.7214 100.832 98.334 103.012 100.351 103.784C102.369 104.557 104.644 104.319 106.756 103.87C109.141 103.36 111.597 102.568 113.395 100.899C115.594 98.8575 116.534 95.7001 116.348 92.7094C116.161 89.7187 114.95 86.8615 113.41 84.2857Z" fill="#333333"></path><path d="M116.622 33.7051C117.523 35.7609 115.267 40.2251 113.621 41.7464C111.976 43.2677 109.959 44.6368 109.276 46.7735C108.241 50.0408 110.788 53.6753 109.658 56.9087C108.866 59.1885 106.348 60.8675 106.471 63.2759C106.624 66.2092 110.473 67.5258 111.513 70.2683C112.395 72.6104 111.756 74.8854 112.619 77.2316C113.163 78.6962 114.361 80.1842 115.39 81.3522C117.632 83.8989 119.273 87.2997 118.681 90.753C117.856 95.5561 116.019 99.6863 112.996 101.222L102.884 87.7913L102.092 66.3282L101.463 55.5969L105.364 52.7356L106.824 42.1661L116.622 33.7051Z" fill="#263238"></path><path d="M92.5511 75.3083L78.7863 119.603C78.7863 119.603 72.7766 145.335 86.4847 144.767C100.193 144.199 97.9316 137.203 97.9316 137.203L98.0699 84.299C98.0699 84.299 100.583 79.8396 100.564 76.4105C100.564 72.5949 101.456 61.6486 101.456 61.6486C101.456 61.6486 104.9 51.7091 103.703 51.27C101.408 50.4257 97.5595 61.3865 97.5595 61.3865C97.5595 61.3865 98.6521 63.452 96.7775 69.0849C94.9028 74.7177 92.5511 75.3083 92.5511 75.3083Z" fill="#F7D1B9"></path><path d="M115.073 29.3828C115.073 29.3828 115.116 29.4257 115.192 29.5163C115.302 29.6525 115.398 29.7998 115.478 29.9554C115.767 30.5666 115.944 31.2236 116.003 31.8964C116.129 32.9564 116.077 34.0296 115.85 35.0731C115.583 36.3178 114.71 37.5106 113.628 38.6315C112.545 39.7524 111.162 40.7924 109.951 42.1512C109.319 42.844 108.806 43.6372 108.434 44.4981C108.052 45.3853 107.781 46.3582 107.333 47.3028C107.112 47.7882 106.823 48.2397 106.474 48.6429C106.105 49.0467 105.677 49.3931 105.205 49.6684C104.275 50.2409 103.23 50.6226 102.344 51.2712C100.517 52.5449 99.348 54.6768 98.7236 56.9325C98.0984 59.1888 97.9989 61.5495 97.8364 63.7817C97.6739 66.0138 97.4692 68.203 96.7777 70.1731C96.154 72.0581 95.004 73.7246 93.4627 74.9762C92.7525 75.5204 91.9421 75.9207 91.0778 76.1545C90.2742 76.335 89.4541 76.4276 88.6313 76.4311C87.8955 76.4387 87.1625 76.5182 86.442 76.6696C85.8038 76.81 85.2056 77.0914 84.6918 77.4946C84.2527 77.8514 83.9361 78.3368 83.7853 78.8824C83.6422 79.3879 83.5848 79.8699 83.4755 80.3131C83.3642 80.9942 82.9548 81.5903 82.3595 81.9395C82.1997 82.019 82.0227 82.0598 81.8443 82.0584C81.7855 82.064 81.7267 82.064 81.668 82.0584C81.8989 82.0695 82.1292 82.0197 82.3359 81.9153C82.9023 81.5592 83.2854 80.9742 83.3849 80.3124C83.4804 79.8878 83.5329 79.4059 83.6712 78.8817C83.8268 78.305 84.1608 77.7926 84.6255 77.4171C85.1524 76.9967 85.7664 76.7001 86.4233 76.5493C87.1536 76.3889 87.8983 76.3011 88.6458 76.2872C89.4486 76.2783 90.248 76.1821 91.0307 76.001C91.8737 75.7748 92.662 75.3807 93.3486 74.842C94.8491 73.6091 95.9645 71.9724 96.5633 70.1247C97.1802 68.0578 97.5204 65.9184 97.5743 63.7623C97.732 61.535 97.8129 59.1833 98.4663 56.8654C98.7775 55.7203 99.2429 54.6229 99.8493 53.6029C100.445 52.6065 101.241 51.7449 102.187 51.07C103.117 50.402 104.166 50.021 105.077 49.463C105.526 49.2071 105.934 48.8856 106.288 48.5087C106.626 48.1236 106.905 47.6914 107.118 47.226C107.557 46.3105 107.829 45.3182 108.225 44.4359C108.611 43.5604 109.139 42.7541 109.789 42.0509C111.024 40.6776 112.407 39.666 113.494 38.545C114.026 38.0292 114.505 37.4615 114.925 36.8516C115.301 36.315 115.572 35.7134 115.727 35.0772C115.96 34.0504 116.026 32.9917 115.922 31.9434C115.868 31.2858 115.707 30.6413 115.445 30.0356C115.339 29.8081 115.214 29.5896 115.073 29.3828Z" fill="#999999"></path><path d="M115.073 29.3828C115.073 29.3828 115.096 29.4112 115.135 29.4734C115.173 29.5356 115.23 29.6497 115.297 29.7645C115.442 30.1711 115.46 30.6116 115.35 31.0286C115.068 32.1349 113.919 33.3513 112.459 34.6298C111.72 35.2688 110.919 35.9941 109.998 36.6905C109.01 37.4062 108.096 38.22 107.27 39.1183C106.847 39.6127 106.504 40.1694 106.25 40.7689C106.004 41.4092 105.816 42.0703 105.687 42.7438C105.551 43.4567 105.346 44.1544 105.076 44.8279C104.763 45.5201 104.295 46.1307 103.707 46.612C103.121 47.0801 102.468 47.4597 101.771 47.7377C101.094 48.0288 100.412 48.2577 99.7485 48.4914C99.0853 48.7252 98.4319 48.9686 97.8406 49.2355C97.2397 49.4934 96.6782 49.8336 96.1714 50.2464C95.2475 51.034 94.6003 52.0976 94.3258 53.28C94.0209 54.3815 93.8487 55.4451 93.5963 56.3993C93.1191 58.3071 91.9796 59.6521 90.9824 60.1437C90.6014 60.3394 90.1803 60.4459 89.7516 60.4535C89.6416 60.4528 89.5317 60.4452 89.4224 60.43H89.3125C89.3125 60.43 89.4653 60.43 89.7516 60.43C90.1672 60.4037 90.571 60.2848 90.9347 60.0815C91.8883 59.5809 92.9663 58.2691 93.4289 56.3806C93.6723 55.4271 93.8245 54.3726 94.1301 53.2468C94.4108 52.018 95.0795 50.9123 96.0379 50.0943C96.5614 49.6677 97.1408 49.3143 97.7597 49.0453C98.38 48.7542 99.0383 48.5253 99.7007 48.2868C100.364 48.0482 101.041 47.8096 101.704 47.533C102.382 47.2668 103.015 46.9003 103.583 46.4453C104.144 45.9903 104.59 45.4102 104.886 44.7519C105.148 44.0929 105.347 43.4111 105.482 42.7154C105.616 42.0288 105.811 41.3553 106.063 40.7025C106.327 40.0802 106.687 39.5041 107.131 38.9952C107.97 38.0873 108.9 37.2686 109.907 36.5529C110.827 35.8662 111.629 35.1554 112.378 34.5213C113.861 33.2669 114.992 32.0886 115.287 31.0299C115.404 30.6316 115.404 30.2078 115.287 29.8088L115.149 29.5128C115.115 29.4741 115.088 29.4305 115.073 29.3828Z" fill="#999999"></path><path d="M103.603 158.396L145.809 154.833L109.498 144.235L70.6934 145.223L103.603 158.396Z" fill="#FFFFFF"></path><path d="M103.603 158.396C103.603 158.396 103.398 158.325 103.002 158.172L101.252 157.49L94.575 154.853L70.6412 145.313L70.1641 145.127H70.6695L109.498 144.135H109.536L112.364 144.96L145.837 154.747L146.41 154.914L145.819 154.961L115.293 157.494L106.675 158.191L104.4 158.367L103.818 158.41H103.618H103.818L104.405 158.352L106.684 158.143L115.303 157.384L145.828 154.761L145.805 154.98L112.323 145.217L109.495 144.392H109.499L70.6896 145.346L70.7276 145.146L94.6041 154.752L101.281 157.447L103.026 158.162C103.403 158.305 103.603 158.396 103.603 158.396Z" fill="#263238"></path><path d="M145.811 154.832L186.41 151.837L147.691 144.516H110.998L145.811 154.832Z" fill="#E0E0E0"></path><path d="M145.812 154.834C145.812 154.834 145.593 154.781 145.173 154.662L143.318 154.152L136.259 152.092L110.98 144.641L110.279 144.432H111.009H147.701L151.187 145.09L186.415 151.767L187.24 151.925L186.401 151.987L157.001 154.109L148.726 154.691L146.547 154.834L145.984 154.867H145.798L145.989 154.844L146.547 154.796L148.736 154.62L157.011 153.976L186.387 151.763V151.982L151.159 145.329L147.658 144.637H147.681H110.989L111.018 144.428L136.268 151.964L143.317 154.081L145.177 154.629C145.598 154.758 145.812 154.834 145.812 154.834Z" fill="#263238"></path><path d="M145.809 154.831C145.809 154.831 146.763 146.013 154.079 146.723C161.395 147.433 171.111 152.361 179.095 152.361L187.68 151.693L169.389 147.948C169.389 147.948 124.026 138.371 124.026 138.671C124.026 138.971 108.763 135.295 109.311 144.337L145.809 154.831Z" fill="#FFFFFF"></path><path d="M145.809 154.833L145.151 154.657L143.214 154.114L135.831 152.015L109.284 144.436H109.213V144.365C109.148 143.512 109.262 142.654 109.547 141.847C109.859 141.02 110.4 140.298 111.106 139.767C112.537 138.694 114.374 138.312 116.172 138.155C118.021 138.032 119.879 138.086 121.719 138.318C122.673 138.413 123.584 138.604 124.542 138.623C125.496 138.781 126.45 138.967 127.403 139.148C135.035 140.65 143.114 142.338 151.489 144.079L170.391 148.048L187.71 151.62L188.482 151.783L187.695 151.845L179.11 152.503C176.317 152.413 173.544 151.986 170.854 151.229C168.288 150.561 165.894 149.799 163.638 149.107C161.382 148.416 159.269 147.796 157.28 147.362C156.288 147.148 155.329 146.975 154.419 146.885C153.543 146.759 152.653 146.783 151.786 146.956C150.319 147.278 149.013 148.112 148.104 149.307C147.427 150.183 146.895 151.162 146.53 152.207C146.285 152.841 146.087 153.491 145.939 154.153C145.891 154.382 145.863 154.553 145.839 154.668L145.81 154.845C145.83 154.611 145.862 154.379 145.906 154.148C146.034 153.471 146.213 152.805 146.44 152.155C146.802 151.101 147.328 150.111 147.999 149.221C148.918 148 150.243 147.144 151.734 146.808C152.614 146.63 153.517 146.602 154.405 146.727C155.359 146.832 156.313 146.994 157.301 147.204C159.294 147.634 161.417 148.249 163.673 148.931C165.929 149.613 168.328 150.362 170.889 151.034C173.565 151.779 176.321 152.197 179.098 152.279L187.683 151.606V151.826L170.364 148.272L151.458 144.308C143.082 142.567 135.003 140.874 127.376 139.367C126.422 139.186 125.469 139 124.539 138.842L124.191 138.79H124.1C124.095 138.758 124.095 138.726 124.1 138.694C124.062 138.666 124.296 138.694 124.181 138.737C124.167 138.768 124.141 138.792 124.11 138.804H124.067C123.997 138.812 123.927 138.812 123.857 138.804C123.614 138.804 123.38 138.747 123.147 138.718L121.744 138.542C119.919 138.308 118.076 138.249 116.24 138.371C114.461 138.523 112.663 138.905 111.289 139.93C110.611 140.434 110.093 141.123 109.796 141.914C109.518 142.691 109.407 143.519 109.472 144.342L109.396 144.246L135.843 151.915L143.241 154.067L145.186 154.639L145.809 154.833Z" fill="#263238"></path><path d="M94.7497 147.563H116.127C116.383 147.563 116.59 147.771 116.59 148.026V149.09C116.59 149.345 116.382 149.552 116.127 149.552H94.7497C94.4939 149.552 94.2871 149.345 94.2871 149.09V148.026C94.2871 147.771 94.4939 147.563 94.7497 147.563Z" fill="#263238"></path><path d="M93.1253 148.174H94.6376C94.751 148.174 94.843 148.266 94.843 148.379V148.861C94.843 148.975 94.751 149.067 94.6376 149.067H93.1253C93.0119 149.067 92.9199 148.975 92.9199 148.861V148.379C92.9206 148.266 93.0126 148.174 93.1253 148.174Z" fill="#263238"></path><path d="M115.777 147.578L118.453 148.27V148.556L115.777 149.534V147.578Z" fill="#263238"></path><path d="M94.2869 148.617C94.2523 148.617 94.2246 148.59 94.2246 148.555V148.298C94.2882 147.51 94.9776 146.923 95.7653 146.986H102.633C102.668 146.986 102.695 147.014 102.695 147.048C102.695 147.08 102.67 147.106 102.639 147.106C102.637 147.106 102.635 147.106 102.634 147.106H95.7659C95.0433 147.045 94.4058 147.576 94.3353 148.298V148.555C94.3373 148.585 94.3166 148.612 94.2869 148.617Z" fill="#263238"></path><path d="M104.502 155.446C105.265 155.446 132.404 153.319 132.404 153.319L104.502 155.446Z" fill="#FFFFFF"></path><path d="M132.393 153.321C132.301 153.345 132.206 153.359 132.111 153.364L131.3 153.45L128.314 153.717L118.446 154.509L108.578 155.224L105.587 155.415L104.772 155.453C104.678 155.465 104.584 155.465 104.49 155.453C104.582 155.426 104.676 155.41 104.772 155.405L105.587 155.32L108.573 155.053L118.436 154.266L128.3 153.55L131.29 153.359L132.106 153.321C132.201 153.31 132.297 153.31 132.393 153.321Z" fill="#263238"></path><path d="M100.014 153.606C100.781 153.606 127.92 151.475 127.92 151.475L100.014 153.606Z" fill="#FFFFFF"></path><path d="M127.923 151.474C127.831 151.501 127.737 151.517 127.642 151.522L126.831 151.608L123.84 151.875L113.977 152.661L104.104 153.382L101.113 153.568L100.302 153.606C100.206 153.616 100.111 153.616 100.016 153.606C100.109 153.58 100.205 153.564 100.302 153.558L101.113 153.473L104.104 153.206L113.967 152.414L123.831 151.698L126.821 151.512L127.636 151.474C127.732 151.462 127.828 151.462 127.923 151.474Z" fill="#263238"></path><path d="M185.136 128.872L157.64 133.384C157.64 133.384 143.265 130.651 141.424 130.966C137.842 131.591 129.213 139.394 129.213 139.394C128.641 143.043 133.658 140.953 133.658 140.953C133.658 140.953 133.701 141.778 135.089 142.494C136.301 143.114 138.704 141.959 138.704 141.959C138.704 141.959 138.094 142.766 140.016 143.571C141.938 144.377 144.518 142.965 144.518 142.965C144.518 142.965 144.957 144.458 146.903 144.449C148.849 144.439 153.476 142.989 153.476 142.989C159.886 146.509 163.587 143.709 163.587 143.709L185.775 145.617L205.12 144.611C205.12 144.611 209.613 135.64 200.952 125.48L185.136 128.872Z" fill="#F7D1B9"></path><path d="M147.713 134.62C147.503 134.663 147.289 134.682 147.074 134.678L145.333 134.735L142.748 134.788C142.255 134.752 141.758 134.799 141.28 134.926C141.038 135.012 140.812 135.138 140.612 135.298C140.402 135.47 140.192 135.651 139.978 135.833C138.261 137.263 136.696 138.565 135.551 139.495L134.192 140.583C134.031 140.724 133.857 140.851 133.672 140.96C133.814 140.793 133.973 140.643 134.149 140.512L135.461 139.363C136.572 138.408 138.122 137.083 139.839 135.638L140.478 135.103C140.917 134.755 141.459 134.564 142.019 134.56H145.357L147.099 134.583C147.304 134.577 147.51 134.59 147.713 134.62Z" fill="#FABC96"></path><path d="M149.562 137.156C149.423 137.212 149.277 137.248 149.128 137.262C148.846 137.309 148.436 137.376 147.926 137.448C146.91 137.6 145.493 137.791 143.91 137.996L143.972 137.968L143.623 138.239C142.293 139.298 141.077 140.243 140.189 140.915C139.746 141.254 139.383 141.52 139.131 141.702C139.007 141.808 138.869 141.897 138.721 141.964C138.822 141.836 138.941 141.722 139.073 141.625C139.307 141.42 139.651 141.148 140.079 140.776C140.938 140.065 142.135 139.102 143.471 138.048L143.814 137.776L143.843 137.753H143.876C145.464 137.557 146.88 137.39 147.906 137.275L149.112 137.161C149.262 137.142 149.413 137.141 149.562 137.156Z" fill="#FABC96"></path><path d="M153.787 140.013C153.317 140.125 152.838 140.197 152.356 140.227C151.464 140.332 150.224 140.456 148.855 140.58H148.908C147.721 141.281 146.638 141.901 145.846 142.34C145.43 142.598 144.993 142.821 144.539 143.007C144.919 142.697 145.324 142.419 145.751 142.178C146.518 141.701 147.587 141.057 148.774 140.356H148.803C150.176 140.232 151.417 140.136 152.313 140.079C152.802 140.015 153.295 139.993 153.787 140.013Z" fill="#FABC96"></path><path d="M40.3747 135.761H0.267578V160.038H40.3747V135.761Z" fill="#787AC1"></path><path d="M0 135.493V160.305H40.6409V135.493H0ZM40.1071 136.028V139.189H0.534518V136.028H40.1071ZM0.534518 153.395H40.1071V156.116H0.534518V153.395ZM0.534518 152.861V150.14H40.1071V152.861H0.534518ZM40.1071 146.351H0.534518V143.329H40.1071V146.351ZM40.1071 146.885V149.606H0.534518V146.885H40.1071ZM40.1071 142.795H0.534518V139.724H40.1071V142.795ZM0.534518 159.77V156.65H40.1071V159.77H0.534518Z" fill="#0E2549"></path><path d="M54.5329 87.1035H14.4258V111.38H54.5329V87.1035Z" fill="#787AC1"></path><path d="M60.736 111.381H20.6289V135.658H60.736V111.381Z" fill="#787AC1"></path><path d="M54.7991 111.114V86.8369H14.1582V111.648H20.3616V135.925H61.0025V111.114H54.7991ZM14.692 87.3714H54.2646V90.5329H14.692V87.3714ZM14.692 91.0667H54.2646V94.1383H14.692V91.0667ZM14.692 94.6729H54.2646V97.7721H14.692V94.6729ZM14.692 98.2403H54.2646V100.95H14.692V98.2403ZM14.692 101.484H54.2646V104.205H14.692V101.484ZM14.692 104.739H54.2646V107.46H14.692V104.739ZM14.692 111.114V107.994H54.2646V111.114H20.3609H14.692ZM60.4679 135.391H20.8954V132.271H60.4679V135.391ZM60.4679 131.737H20.8954V129.016H60.4679V131.737ZM60.4679 128.482H20.8954V125.761H60.4679V128.482ZM60.4679 125.227H20.8954V122.506H60.4679V125.227ZM60.4679 121.972H20.8954V118.95H60.4679V121.972ZM60.4679 118.416H20.8954V115.344H60.4679V118.416ZM60.4679 114.81H20.8954V111.648H54.7991H60.4679V114.81Z" fill="#0E2549"></path><path d="M276.993 129.046H227.135V159.225H276.993V129.046Z" fill="#787AC1"></path><path d="M267.622 98.8682H217.764V129.048H267.622V98.8682Z" fill="#787AC1"></path><path d="M271.372 68.4492H221.514V98.6286H271.372V68.4492Z" fill="#787AC1"></path><path d="M281.493 38.3799H231.635V68.5593H281.493V38.3799Z" fill="#787AC1"></path><path d="M271.703 98.9598V68.7797H281.825V38.0479H231.302V68.1159H221.18V98.5359H217.432V129.38H226.803V159.559H277.326V128.715H267.954V98.9591H271.703V98.9598ZM231.966 38.7096H281.16V42.6421H231.966V38.7096ZM231.966 43.3059H281.16V47.125H231.966V43.3059ZM231.966 47.7889H281.16V51.545H231.966V47.7889ZM231.966 52.2096H281.16V55.5916H231.966V52.2096ZM231.966 56.2562H281.16V59.6382H231.966V56.2562ZM231.966 60.3021H281.16V63.6841H231.966V60.3021ZM231.966 64.3487H281.16V68.118H271.703V68.1159H231.966V64.3487ZM221.844 68.7797H231.302H271.038V72.7102H221.844V68.7797ZM221.844 73.374H271.038V77.1931H221.844V73.374ZM221.844 77.8569H271.038V81.6131H221.844V77.8569ZM221.844 82.2776H271.038V85.6597H221.844V82.2776ZM221.844 86.3242H271.038V89.7063H221.844V86.3242ZM221.844 90.3701H271.038V93.7522H221.844V90.3701ZM221.844 94.4167H271.038V98.2953H221.844V94.4167ZM218.095 99.2004H267.289V103.131H218.095V99.2004ZM218.095 103.795H267.289V107.614H218.095V103.795ZM218.095 108.278H267.289V112.034H218.095V108.278ZM218.095 112.698H267.289V116.08H218.095V112.698ZM218.095 116.744H267.289V120.126H218.095V116.744ZM218.095 120.791H267.289V124.173H218.095V120.791ZM276.661 158.895H227.467V155.017H276.661V158.895ZM276.661 154.352H227.467V150.97H276.661V154.352ZM276.661 150.306H227.467V146.924H276.661V150.306ZM276.661 146.26H227.467V142.878H276.661V146.26ZM276.661 142.213H227.467V138.457H276.661V142.213ZM276.661 137.793H227.467V133.974H276.661V137.793ZM276.661 129.38V133.31H227.467V129.38H267.954H276.661ZM226.803 128.715H218.095V124.837H267.289V128.715H226.803Z" fill="#0E2549"></path><path d="M60.7213 31.6662C60.7213 31.6662 35.8609 21.6811 34.2338 11.7734C34.2338 11.7734 21.8354 17.176 14.5879 15.818C14.5879 15.818 27.8334 41.9106 35.3312 42.9306C35.3312 42.9299 58.1206 36.627 60.7213 31.6662Z" fill="#787AC1"></path><path d="M35.3514 43.2672L35.2836 43.2582C27.7008 42.2265 14.8335 17.0383 14.2893 15.9672L13.9844 15.3663L14.6468 15.4901C21.7125 16.8136 33.976 11.5209 34.0984 11.4677L34.4898 11.2969L34.559 11.718C36.1369 21.3283 60.5956 31.2574 60.8425 31.3563L61.1834 31.4932L61.0126 31.8189C58.3753 36.8495 36.3527 42.9892 35.4171 43.2485L35.3514 43.2672ZM15.182 16.2466C17.1825 20.0795 28.6682 41.5544 35.3072 42.5895C36.641 42.2154 57.0434 36.427 60.2326 31.8251C57.0773 30.5217 36.0782 21.5295 33.9836 12.2373C32.0807 13.0332 23.7143 16.3683 17.2053 16.369C16.5056 16.3696 15.8286 16.3309 15.182 16.2466Z" fill="#0E2549"></path><path d="M179.163 25.104V24.0737C179.163 18.7686 185.88 18.5376 185.88 14.7607C185.88 13.1212 184.545 12.0514 182.559 12.0514C180.384 12.0514 179.009 13.2352 179.009 14.9149V15.336C179.009 15.7543 178.782 15.9514 178.361 15.9514L174.279 15.7979C173.898 15.7979 173.631 15.6071 173.631 15.3429V14.9218C173.631 10.3082 177.294 7.1377 182.676 7.1377C187.941 7.1377 191.337 10.1146 191.337 14.5774C191.337 20.9129 184.507 20.953 184.507 24.4194V25.1054C184.545 25.4255 184.316 25.7166 183.995 25.754C183.949 25.7595 183.903 25.7595 183.858 25.754H179.812C179.492 25.792 179.201 25.5631 179.163 25.2423C179.157 25.1959 179.157 25.1496 179.163 25.104ZM178.818 31.2555C178.818 29.5765 180.307 28.2012 182.1 28.2012C183.819 28.2012 185.345 29.5758 185.345 31.2555C185.345 32.9351 183.807 34.3098 182.063 34.3098C180.319 34.3098 178.818 32.9289 178.818 31.2499V31.2555Z" fill="#333333"></path></svg>