<svg xmlns="http://www.w3.org/2000/svg" xmlns:xlink="http://www.w3.org/1999/xlink" viewBox="0 0 305.24 198.13"><defs><style>.cls-1{fill:none;}.cls-2{fill:url(#linear-gradient);}.cls-3{clip-path:url(#clip-path);}.cls-4{fill:#272727;}</style><linearGradient id="linear-gradient" x1="49.21" y1="-14.93" x2="261.1" y2="218.65" gradientUnits="userSpaceOnUse"><stop offset="0" stop-color="#1cd69e"/><stop offset="0.11" stop-color="#38d88e"/><stop offset="0.43" stop-color="#85dd62"/><stop offset="0.7" stop-color="#bde142"/><stop offset="0.89" stop-color="#dfe32e"/><stop offset="1" stop-color="#ece427"/></linearGradient><clipPath id="clip-path"><rect class="cls-1" x="95.86" y="56.12" width="113.51" height="114.17"/></clipPath></defs><g id="Layer_2" data-name="Layer 2"><g id="Layer_1-2" data-name="Layer 1"><rect class="cls-2" width="305.24" height="198.13" rx="35.74"/><g class="cls-3"><path class="cls-4" d="M150.87,170.22c-1.21-.13-2.42-.29-3.62-.51a9.64,9.64,0,0,1-2.88-.3c-1.4-.38-2.87-.48-4.25-.94a10.45,10.45,0,0,1-2.61-.35c-1.63-.54-3.41-.65-4.93-1.48a2.48,2.48,0,0,0-1.94-.91c-.88-.44-1.88-.55-2.73-1-.75-.29-1.27-.94-2-1.18-.85-.51-1.76-.9-2.6-1.45s-1.93-.87-2.7-1.6a18.61,18.61,0,0,1-3.31-2.75c-.86-.46-1-1.53-1.79-1.95-.81-.14-1.3-.89-1.8-1.43-.85,0-1.07-1-1.69-1.44a26.51,26.51,0,0,0-2.35-2.5c-.73-.4-1-1.26-1.62-1.83a16.17,16.17,0,0,1-2.3-2.8c-.61-.5-.77-1.32-1.25-1.89a10.81,10.81,0,0,1-1.15-2.17c-.43-.7-.65-1.52-1.1-2.24-.1-.88-1-1.24-1.21-2.11a14.11,14.11,0,0,1-1.19-2.84c-.34-.85-.42-1.81-.82-2.61-.36-.63-.21-1.6-.69-2,.6-.35-.75-1.18-.29-1.78.17-.08,1.17-.1.52-.12-.89.09-1.08-1-1-1.64s-.89-.89-.66-1.71a3.81,3.81,0,0,1-.23-2.09c-.75-.28.13-1.34-.3-1.81-.13-.48.47-.87.12-1.42a4.41,4.41,0,0,1-.23-2.1c-.07-.67.54-1.33-.18-1.66.29-.79-.23-1.67.21-2.41.25-.81-.21-1.68-.07-2.54,0-1.9-.26-3.86.3-5.71-.35-.57.06-.92.61-.93-.15-.17-1-.2-.68-.84.24-.38.84-.41.28-.88-.54-.62.34-1,0-1.71a9.87,9.87,0,0,1,.43-2.32c-.11-.76,1.17-.34,1.07-.82-.64.29-1-.06-.64-.68-.1-.85.65-1.41.77-2.24a21.25,21.25,0,0,1,1.09-2.37,19,19,0,0,1,.83-2c.34-.67.72-1.33,1-2.05.29-.91,1.16-1.5,1.35-2.47a20.93,20.93,0,0,1,1.15-2.07,9.68,9.68,0,0,1,1.44-2.14,23.74,23.74,0,0,1,1.4-2.18c0-.42,1.1-.06.49-.52-.22-.83,1.1-.91,1.23-1.42,0-.75,1-1.23,1.42-1.84a18,18,0,0,1,1.75-2c.47-.48,1-.75,1.18-1.45.3-.38,1.43,0,1.39-.37-1-.18.59-.69.66-1.19.7-.63,1.7-.83,2.32-1.61a17.89,17.89,0,0,0,2-1.68,19.12,19.12,0,0,0,2-1.47c.3-.7,1.58-.48,1.69-1.37.52-.5,1.39-.22,1.65-.88.86-.13,1.31-1,2.14-1.17a15.09,15.09,0,0,0,2.58-1.35c.74-.64,1.86-.51,2.71-1,.38-.13.77-.28.32-.54.33-.47.95.55,1.33-.06.38.17,1-.39,1.08-.24.36.16.54-.83,1.12-.45.74,0,1.48-.28,2.21-.35,0-.53.82-.53,1.16-.63.37.3,1.42.38.75-.17.62-.5,1.53-.24,2.27-.31,1.55-.15,3.07-.5,4.59-.8s2.9-.08,4.35-.11c3.19,0,6.37,0,9.55.1a5.76,5.76,0,0,0,2.16.25c1,0,2,.26,3,.27a16.62,16.62,0,0,1,2.29.56c.62.23,1.68.3,1.47,1,.67-.69,1.7,0,2.48.24a12,12,0,0,1,2.29.86A12.39,12.39,0,0,1,177,60.78c.53.65,1.45.69,2,1.31.31.26.41.83.68.21.71.37,1.43.9,2.21,1.25a10.58,10.58,0,0,1,2.48,1.75c.78.68,1.74,1,2.5,1.75.6.59,1.44.88,1.94,1.55a17.55,17.55,0,0,1,2.08,1.55c.87.38,1.14,1.44,1.81,2,.89.28,1.28,1.06,2,1.51a14.74,14.74,0,0,1,2.36,2.5c.27.43,1.51,1.52.45,1.69.42.23.9-.26,1.25.37.94.81,1.23,2.08,2.05,3,.34.47.1,1.36.86,1.38.08.87,1,1.29,1.19,2.12s.49,1.61.86,2.36.68,1.55,1,2.33a11.14,11.14,0,0,0,.72,2.18,9,9,0,0,1,.63,2.55,16.43,16.43,0,0,1,.72,2.32,17.28,17.28,0,0,1,.78,3.23,20.77,20.77,0,0,1,.73,3.82c.24.68.06,1.52.55,2,0,.39-.64.67-.07,1a9.4,9.4,0,0,1,.28,3.88,3.25,3.25,0,0,1-.11,2.26c.06.52.33,1,.17,1.48.57.53-.53,1.42,0,1.89-.06.78-.22,1.55-.3,2.32s.63,1.69.26,2.48.28,1.69-.5,2.11a8.74,8.74,0,0,0-.26,2c-.25.88-.49,1.76-.65,2.64-.12.43-.5.65-.05,1-.2.7-.14,1.52-.91,1.87a15.47,15.47,0,0,1-.48,2.12,3.61,3.61,0,0,1-.53,2,8.47,8.47,0,0,1-.74,2.16c-.18,1-.76,1.78-1,2.7a11.42,11.42,0,0,0-1.67,2.39,15.43,15.43,0,0,0-1.35,1.83c-.57.5-.76,1.33-1.32,1.83-.28.68-1,.94-1.35,1.55a7.89,7.89,0,0,1-1.82,1.78c-.26.62-.54,1.79-1.53,1.39-.36.44-.33,1.39-1,1.81a8.88,8.88,0,0,1-2.1,1.82c-.51.39-.86,1.22-1.47,1.67a16,16,0,0,1-2.65,2.21c-.79.34-1.24,1.24-2.05,1.68-.59.58-1.5.63-2,1.33-1,.55-1.81,1.34-2.83,1.83-1.34.71-2.76,1.29-4.05,2.09-.82.36-1.81.23-2.56.79s-1.9.28-2.73.82c-.77.38-1.55.65-2.34.95-1.11.63-2.42.74-3.54,1.35-.88.36-1.88.17-2.76.57a16.13,16.13,0,0,1-2.5.43c-1.92.16-3.86.22-5.76.55-1,.09-2.05.14-3.08.23Zm6.6-2.45a16.53,16.53,0,0,1,2.69-.42c.9-.1,1.75-.4,2.65-.45s1.71-.27,2.58-.38a11,11,0,0,0,3-.9,20,20,0,0,0,2.54-.75c.63-.33,1-.81,1.69-1a16.78,16.78,0,0,0,2.3-.77,24.85,24.85,0,0,0,2.4-1.1c1.17-.37,2-1.42,3.15-1.76.65-.43,1.37-.69,2-1.11,1.12-.28,1.78-1.34,2.77-1.83.76-.76,1.7-1.29,2.43-2.07.59-.59,1.37-.92,1.92-1.54a36.27,36.27,0,0,0,3.44-3.35,20.2,20.2,0,0,0,2.22-2.31,6,6,0,0,0,1.61-1.94c.5-.55.9-1.17,1.42-1.7.36-.63.79-1.22,1.12-1.85.55-1,1.38-1.79,1.94-2.76.4-.73.91-1.41,1.26-2.16a7.75,7.75,0,0,1,.8-2.16,23.26,23.26,0,0,1,1-2.21c.34-.9.56-1.85,1-2.68.19-.79.65-1.48.77-2.29a4.27,4.27,0,0,0,.67-2.37c.06-1.07.23-2.14.39-3.21,0-.74.68-1.33.48-2a16.35,16.35,0,0,1,.21-2.65c.26-.5-.45-1-.13-1.6,0-.73,0-1.69.58-2.09.38,0,.67,0,.12-.08-1.11-.15-.2-1.51-.48-2.22a7.1,7.1,0,0,1-.24-2.39c.13-.88-.32-1.67-.32-2.54s-.48-1.5-.36-2.35a15.19,15.19,0,0,0-.65-3.34c-.21-.82,0-1.78-.59-2.47-.29-.87-.38-1.8-.66-2.68a6.16,6.16,0,0,0-.65-2.54c-.13-.73-.74-1.42-.57-2.16a8.64,8.64,0,0,0-.84-2.59c-.29-.77-.62-1.48-.91-2.26s-.79-1.27-1.12-1.95a22.91,22.91,0,0,0-1.46-2c-.58-.69-1.14-1.4-1.65-2.13-.27-1-1.19-1.62-1.72-2.46a67.7,67.7,0,0,0-5-5.83c-.53-.66-1.44-1-2-1.66a32.52,32.52,0,0,0-2.87-2.37,17.45,17.45,0,0,0-1.95-1.6,22.78,22.78,0,0,0-3.22-2.14,2.51,2.51,0,0,0-1.8-1c-.67-.29-1.17-.69-1.81-1a12.91,12.91,0,0,0-2.18-1c-.8-.38-1.61-.78-2.38-1.22-.78-.22-1.58-.66-2.39-.91-.74-.45-1.59-.57-2.32-1-1-.08-1.88-.53-2.86-.52-.81-.07-.64-.53,0-.69-.72-.47-.86.77-1.67.43-1.85-.19-3.63-.74-5.49-.88a4.87,4.87,0,0,0-2.46-.08,34,34,0,0,0-6.76.43c-.93.16-1.87-.12-2.81.08-.29.17-.56-.75-.65-.26.57.44-1.06.64-1.42.76-2.19.54-4.43.8-6.58,1.46a4.67,4.67,0,0,0-2,.65c-.68.23-1.23-.49-1.81.12-.18.26.55-.11.7-.14.15.92-1.43.87-1.95,1.43a14.38,14.38,0,0,1-2.52,1.08c-.84.38-1.59.91-2.46,1.23a13.45,13.45,0,0,1-2.13,1,5.28,5.28,0,0,1-1.62,1.08c-.63.41-1.32.73-1.92,1.2s-1.47.82-2.09,1.39a26.14,26.14,0,0,1-2,1.69c-.65.39-1,1.14-1.76,1.35-1.06,1.23-2.31,2.29-3.45,3.45a9.22,9.22,0,0,0-2,2.37,17.05,17.05,0,0,0-1.69,1.71c-.53.68-.95,1.44-1.54,2.08-.43.78-1,1.46-1.41,2.24a13,13,0,0,0-1.26,2.27c-.72.34-.59,1.34-1.21,1.75-.07.42-.51.52-.45,1-.24.77-.94,1.19-1.06,2-.48.77-.5,1.73-1.14,2.41-.37.54-.39,1.29-.71,1.76.35.62-.76.87-.63,1.33-.11.64-.46,1.42-.52,2.16-.23.49,0,1.46-.53,1.63.27.56-.66.56-.09,1.11a2.1,2.1,0,0,1-.72,1.88c.73.18,0,1.12-.57.87.29.13,1,.85.61,1.44-.19.94.21,1.87,0,2.8-.13,1.49,0,3-.23,4.49-.25.87.3,1.73-.07,2.56.2.59.11,1.46.24,1.84-.83.15.32.43.13,1a8.43,8.43,0,0,1,.1,3.67c.59.48-.57.09-.13.54a4.29,4.29,0,0,1,.83,3,5.6,5.6,0,0,1,.8,2.3c.19.75.63,1.46.41,2.2.51.3.08.6.65.86.22,1,.13,2.09.74,2.93a8.77,8.77,0,0,1,1.14,2.06c.31.93,1,1.69,1.23,2.65a18.47,18.47,0,0,1,1.23,2,29.6,29.6,0,0,0,1.9,3.4c.42.72.92,1.42,1.38,2.12s.9,1.16,1.29,1.79a22.34,22.34,0,0,0,1.58,2,21.38,21.38,0,0,1,1.73,1.83c.45.65,1.08,1.16,1.47,1.85,1.07-.07,1.19,1.21,2,1.72a6.72,6.72,0,0,1,1.87,1.69c.11.56.74.62,1.11.62-.47.37.48.54.49.94a11.83,11.83,0,0,1,2.07,1.34,24.7,24.7,0,0,0,2.34,1.22c.86.37,1.58,1,2.47,1.31a24.84,24.84,0,0,0,3.57,1.71,8.33,8.33,0,0,0,2.21,1.11,17.73,17.73,0,0,0,2.56,1c.94.1,1.73.79,2.71.75a23.24,23.24,0,0,0,2.73.83,25,25,0,0,1,2.6.38c2.14.32,4.31.39,6.46.64a79.12,79.12,0,0,0,8.15-.17l.13,0Zm-6.3-2.18c-.7-.09-1.49,0-2.22-.17a3.56,3.56,0,0,0-2.51,0,21.53,21.53,0,0,1-2.38-.31,16.14,16.14,0,0,1-3.39-.58c-.92-.13-1.77-.53-2.68-.74a16.75,16.75,0,0,1-2.54-.71c-.66-.44-1.44-.71-2.15-1.09-.8-.21-1.48-.72-2.28-.89a6.28,6.28,0,0,0-2.36-1.16,6,6,0,0,1-2.15-1c-.75-.42-1.53-.78-2.28-1.2-.85-.25-1.33-1.18-2.19-1.57-1.27-.59-2.16-1.7-3.29-2.48-.55-.58-1.26-1-1.85-1.5a13.6,13.6,0,0,1-1.49-1.73,7.81,7.81,0,0,0-1.78-1.89c-.55-.77-1.27-1.36-1.87-2.07l-1.48-2.1c-.22-.88-1.14-1.11-1.6-1.79a24.37,24.37,0,0,1-2.12-3.36c-.42-1.25-1.5-2.2-1.79-3.5-.44-.64-.61-1.38-1.08-2a12.1,12.1,0,0,1-.86-2,8.21,8.21,0,0,1-.94-2.36c-.15-.43-.33-1.62.16-.66a5.07,5.07,0,0,1,1.07,2.21,24.06,24.06,0,0,0,1.47,3,15.45,15.45,0,0,0,1.27,2.54,20.08,20.08,0,0,1,1.25,2.22c1.07,1.6,2.12,3.23,3.24,4.81a17.29,17.29,0,0,0,1.66,2.09c.29.74,1,1.08,1.44,1.76a8.42,8.42,0,0,1,1.9,1.82,36.75,36.75,0,0,0,3.37,3.35c1,.77,1.9,1.65,2.88,2.45s1.77,1.27,2.6,2a26.32,26.32,0,0,0,5.38,2.77c1.82.89,3.8,1.36,5.67,2.12s3.85,1.18,5.78,1.76a46.15,46.15,0,0,0,6.3.89,68.13,68.13,0,0,0,9.26,0c1.35-.29,2.75-.33,4.12-.55a17.3,17.3,0,0,0,4.22-.8,38.77,38.77,0,0,0,4.36-.9c1.55-.47,3-1.16,4.56-1.66,2.19-.78,4.2-2,6.3-3,.9.12-.45.9-.81,1-.9.37-1.51,1.24-2.48,1.48a12.51,12.51,0,0,1-2.23,1.18c-1,.75-2.26.85-3.36,1.33a18.9,18.9,0,0,1-2.44.71,9.93,9.93,0,0,0-2.53.6,9.49,9.49,0,0,1-2.45.57c-2.79.41-5.59.8-8.41,1a30.62,30.62,0,0,1-4.17.11Zm-2.58-1.94c-.74-.23-1.52,0-2.25-.35-1-.08-1.91-.54-2.9-.65a23.76,23.76,0,0,0-2.63-.37c-.94-.31-2-.1-2.89-.54a16.12,16.12,0,0,1-4.12-1.27,19.1,19.1,0,0,1-3-1.43c-1.18-.53-2.08-1.58-3.35-1.93-.52-.55-1.24-.89-1.78-1.45-.8-.71-1.89-1-2.55-1.89-.84-.55-1.5-1.34-2.32-1.92a29.24,29.24,0,0,0-2.66-2.45c-.74-.48-1.13-1.29-1.75-1.88s-1-1.3-1.57-1.89a22.29,22.29,0,0,1-2.3-2.65c-.66-.59-1-1.47-1.58-2.12a11.23,11.23,0,0,0-1.26-1.75c-.34-.75-.87-1.37-1.23-2.09a18.31,18.31,0,0,1-1.68-3.3,18.15,18.15,0,0,1-1-1.85c-.28-.75-.55-1.48-.86-2.22a30.76,30.76,0,0,0-1.46-3.89c-.09-.75-.56-1.39-.64-2.14-.15-.9-.38-1.78-.59-2.65,0-.58-.34-1,0-1.52a18.21,18.21,0,0,1-.42-3.53c.19-1.44.11-2.91.43-4.32a9.92,9.92,0,0,1,.24-2.62c.54-.19.15,1.1.23,1.45-.19,2.55,0,5.11,0,7.65-.55.4.36.92.23,1.57a15.56,15.56,0,0,0,.69,3.78c-.07.79.45,1.48.48,2.23.14.91.94,1.6,1.08,2.53a12.55,12.55,0,0,1,.81,2,9.78,9.78,0,0,1,1.46,2.7,19.68,19.68,0,0,1,1,2.41,15,15,0,0,0,1.27,1.77c.46.32.07.84.66.86a19.17,19.17,0,0,0,1.43,1.82c.25.83,1,1.37,1.3,2.18a9.2,9.2,0,0,1,1.55,2.06c.57.6,1.09,1.26,1.61,1.87.65.38.93,1.16,1.51,1.65s.78,1.37,1.52,1.19c.08.74.8,1.3,1.36,1.68s1.24.83,1.74,1.4c.71.69,1.58,1.19,2.28,1.9a13.75,13.75,0,0,0,2.51,1.78c.74.59,1.66.92,2.41,1.49s1.71.88,2.5,1.44a7.74,7.74,0,0,0,2.71.69c.78.21,1.56.89,2.29.88.54-.46,1.06.66,1.76.52a12.45,12.45,0,0,0,2.38.69,24.79,24.79,0,0,0,3.81.89,19.82,19.82,0,0,0,4.54.51h1.75c2.08.16,2,.3,3,.07.68-.21,1.5-.14,2.26-.38a13.13,13.13,0,0,1,2.86-.39,12.51,12.51,0,0,1,2.19-.36c.8-.19,1.59-.32,2.39-.45.93.1,1.67-.52,2.56-.53.41,0,1-.24.27-.17.38-.5,1.4-.12,1.9-.68.5.08,1,.11,1.08-.46.78-.26,1.56-.46,2.34-.8s1.57-.5,2.26-.88c.58-.73,1.57-.71,2.33-1.14.86-.13,1.2-1,2.06-1.05.31-.65,1.35-.65,1.83-1.32.64-.69,1.59-.93,2.21-1.65a11.63,11.63,0,0,0,2-1.33,10.28,10.28,0,0,0,1.81-1.8c.48-.67,1.38-.95,1.87-1.64a18.93,18.93,0,0,1,2.67-2.47,8.21,8.21,0,0,1,1.31-1.84,9.34,9.34,0,0,0,1.51-2,9.2,9.2,0,0,0,1.3-2c.51-.67.75-1.52,1.33-2.15a27,27,0,0,0,1.82-3.55c.47-1.36,1.15-2.63,1.53-4a8.8,8.8,0,0,1,1-2.55,10.89,10.89,0,0,0,.71-2.29,28.21,28.21,0,0,0,.93-5.24,61.2,61.2,0,0,0,0-10.31c-.22-2.34-.77-4.63-1-7-.07-.75-.57-1.32-.27-2.09-.49-.64-.32-1.58-.86-2.3-.51-.94-.64-2-1.18-3-.39-.25-.85-.08-.21-.34.19-.7-.57-1.39-.74-2.09a9.28,9.28,0,0,0-.85-2.27,10.48,10.48,0,0,1-1-2.29c-.48-.89-1.05-1.75-1.57-2.62-.74-1.14-1.74-2.07-2.46-3.22-1-1.13-1.9-2.41-2.93-3.56a25.69,25.69,0,0,0-4.25-4,28.38,28.38,0,0,0-3.5-2.7,2.06,2.06,0,0,0-1.4-1.38c-.9-.6-1.84-1.14-2.74-1.75A21.35,21.35,0,0,0,174.79,67c-.78-.29-1.49-.78-2.3-1a10.73,10.73,0,0,0-2.35-.82,9.17,9.17,0,0,1-1.87-.82c1.48.2,2.83.88,4.28,1.2a11.17,11.17,0,0,1,2.16.93,4.91,4.91,0,0,1,2.07,1.08A22.12,22.12,0,0,1,179.14,69c.73.33,1.14,1.2,2,1.22.65.62,1.46,1.07,2.18,1.64.91.7,1.74,1.51,2.61,2.27,2.14,1.94,4.08,4.09,6,6.23a7.48,7.48,0,0,0,1.49,1.83,15.05,15.05,0,0,1,1.46,2c.57.45.77,1.31,1.2,1.92a18.72,18.72,0,0,0,1.15,2.11c.43.79.71,1.65,1.19,2.42.23.84.79,1.53,1,2.37.57.64.45,1.57.91,2.24a27.08,27.08,0,0,1,1.37,3.57,7.61,7.61,0,0,0,.54,1.52,22.65,22.65,0,0,0,.36,2.73,6.35,6.35,0,0,1,.33,2.21c.26,1.22.21,2.48.41,3.71.64.68,0,1.66.22,2.49a9.59,9.59,0,0,1,.06,2.39c-.44.24.41.47.06.92-.13,1.1-.13,2.22-.35,3.31.31.74-.2,1.54-.17,2.34a18.76,18.76,0,0,0-.4,2.34,7.05,7.05,0,0,0-.55,2.46c-.14.9-.72,1.66-.88,2.56a13.08,13.08,0,0,0-.71,2,14.69,14.69,0,0,0-.83,2.53,7.84,7.84,0,0,0-1,2.08c-.42,1.28-1.38,2.31-1.77,3.6a12.46,12.46,0,0,0-1.37,2,5.17,5.17,0,0,1-1.16,1.78,26.76,26.76,0,0,1-2.17,3.33c-.71.47-.74,1.58-1.63,1.74-.64.12-.24,1.21-1,1.37-.64.56-1,1.36-1.75,1.86s-1.37.94-2,1.46a14.35,14.35,0,0,1-2,1.82c-.71.52-1.44,1-2.09,1.52a19.23,19.23,0,0,0-2.4,1.43q-2.2,1.23-4.46,2.37c-1,.49-2,.81-3,1.34-.64.51-1.53.41-2.28.71-1.07.1-2.05.61-3.1.81-1.22.35-2.48.56-3.68,1a20.63,20.63,0,0,1-2.49.47c-2.12.25-4.27.27-6.39.46-.79.37-1.58-.07-2.39.11A20.18,20.18,0,0,1,148.59,163.65Zm28.86-5.56c-.24-.67,1-.32.32.07A.31.31,0,0,1,177.45,158.09Zm3.35-.69a19.7,19.7,0,0,1,2.24-1.59,20.63,20.63,0,0,0,2-1.63,28,28,0,0,0,3.21-2.86c1.23-1.24,2.53-2.41,3.64-3.76a10.54,10.54,0,0,0,1.7-2.06,22.59,22.59,0,0,0,1.67-2.22c.58-.72,1.05-1.52,1.61-2.26.35-.67.93-1.24,1.3-1.94a18.41,18.41,0,0,1,1.43-2.37c.39-.87.84-1.71,1.16-2.61.47-.87.66-1.86,1.14-2.73.31-.89.44-1.84.79-2.72a21.14,21.14,0,0,0,.88-3.59c.4-1.32.35-2.72.72-4a30.59,30.59,0,0,0,.67-5.63c0-1.51.34-3,.24-4.52.06-1-.11-1.92,0-2.88a11.94,11.94,0,0,1,.55,2.14,6.21,6.21,0,0,1-.06,2.94c-.38.8.16,1.6-.19,2.33-.12,1.3,0,2.62-.13,3.92-.17.75-.25,1.54-.49,2.28a14.57,14.57,0,0,1-.26,2.39,13,13,0,0,0-.63,2.24,13,13,0,0,1-.58,2.45,13.36,13.36,0,0,1-.51,2.32,12.41,12.41,0,0,1-1,2.59c-.09.76-.66,1.22-.84,1.93a8.62,8.62,0,0,0-1,2.15c-.39,1.06-1.46,1.68-1.85,2.75a14.47,14.47,0,0,0-1.27,2,17.05,17.05,0,0,1-1.58,2.31c-.47.86-1.26,1.51-1.71,2.39a12.5,12.5,0,0,1-2.22,2.14,13.83,13.83,0,0,1-1.83,1.84,18.19,18.19,0,0,1-2.33,2.23c-.73.39-1.24,1.06-2,1.5-1,.67-2,1.42-3,2.14C181.91,157,181,157.85,180.8,157.4Zm-80.64-33.55c-.16-.72.41,0,0,.11Zm-.25-1.2a12.15,12.15,0,0,1-.36-2.54c.51.37.38,1.39.63,2C100.05,122.24,100.19,123.08,99.91,122.65Zm-.71-6.3c-.13-1.53,0-3.08-.08-4.61a17,17,0,0,1,.27-3.19,24.82,24.82,0,0,1,.52-4.79c.39-1.29.56-2.65,1-3.92a10.35,10.35,0,0,1,.73-2.29,4.85,4.85,0,0,1,.81-2.22,24.9,24.9,0,0,1,1.24-2.79c.34-.74.61-1.44,1-2.17a24.8,24.8,0,0,1,1.5-2.84c.49-.69.86-1.5,1.34-2.21a17.24,17.24,0,0,1,2.43-3.5c.79-1,1.3-2.18,2.16-3.12,1-1.22,2.18-2.23,3.08-3.5.69-.56,1.33-1.1,2.06-1.61,1.28-.86,2.32-2,3.68-2.79.3-.36,1.23-.49.63.12a15.69,15.69,0,0,0-1.9,1.32c-.58.71-1.54,1-2,1.87-.58.6-1.35,1-1.89,1.61a26.67,26.67,0,0,0-2.21,2.3c-.5.73-1.14,1.39-1.66,2.12s-1.1,1.46-1.59,2.22a8.49,8.49,0,0,1-1.25,2,19.93,19.93,0,0,1-1.34,2c-.29.8-.84,1.45-1.11,2.27-.68,1-1.23,2-1.91,3a9.91,9.91,0,0,0-1.08,2.28,7.21,7.21,0,0,0-.86,2.09,8.22,8.22,0,0,0-1.11,3.07,12,12,0,0,0-.6,2.4c-.1,1-.3,2-.37,3a12.89,12.89,0,0,1-.81,3.8,9.9,9.9,0,0,1-.11,2.54,21.69,21.69,0,0,0-.19,4c.21.32.11,1.81-.45,1.44Zm3.44-7.9c-.4-.33,0-1.55.3-1.33C103.36,107.76,102.86,108,102.64,108.45Zm.18-2.53a30,30,0,0,0,.39-3.4c.45-1.82,1.06-3.6,1.6-5.4A9.93,9.93,0,0,1,106,94.38c.5.49-.43,1.36-.47,2-.31.82-.55,1.62-.86,2.44a11.15,11.15,0,0,1-.66,2.37,33.94,33.94,0,0,1-.83,4.25C103.45,106,102.69,107.11,102.82,105.92Zm100.86-5.09c-.06-.91.83.43.1.17l-.06-.08Zm-.13-1a18.52,18.52,0,0,0-.94-3c-.19-.77-.35-1.55-.6-2.3a15.28,15.28,0,0,0-.63-2.32c-.66-1.3-1-2.76-1.72-4a35.09,35.09,0,0,0-1.83-3.49c-.26-1,.77.13.81.54a16,16,0,0,1,2,3.8,16.55,16.55,0,0,1,1.06,2.55,17.4,17.4,0,0,1,.84,2.36,21.51,21.51,0,0,0,.79,2.71,19.39,19.39,0,0,1,.49,3C203.81,99.82,203.63,100.16,203.55,99.83Zm-96.32-8.2c0-.88.74-1.58,1-2.4.59-1.28,1.47-2.38,2.08-3.65a21.52,21.52,0,0,1,2-3,13.91,13.91,0,0,1,1.75-2.33,29.64,29.64,0,0,1,4.23-4.15c.37-.15.93-1,1.23-.73a26,26,0,0,1-1.64,2.15,6.68,6.68,0,0,0-1.9,2.27c-.79.47-1.16,1.37-1.86,2a13.59,13.59,0,0,1-2,1.9c-.6.56-.76,1.45-1.34,2-.08.73-.82,1-.89,1.77-.22.79-.92,1.32-1.19,2.1-.46.64-.51,1.47-1.1,2C107.43,91.71,107.33,92.19,107.23,91.63Zm90-8c-.37-.34-.32-1.19.1-.39.28.27.64,1.31,0,.58l-.07-.09Zm-.69-1.33c-.5-.31-.14-.78.12-.18C196.74,82.33,196.81,82.66,196.51,82.3Zm-2-2.6c-.42-.48.15-.83.32-.18C195,79.8,194.63,80,194.47,79.7Zm-.88-1.29c-.26-.23-1-1.3-.21-.84.23.3,1.13,1.07.63,1.27A1.33,1.33,0,0,1,193.59,78.41Zm-1.66-1.92c-.39-.32-.7-1.12,0-.46.2.22,1.16,1,.65,1.08A4.54,4.54,0,0,1,191.93,76.49ZM190.33,75c-1.07-1.12-2.33-2-3.42-3.12-.5-.4-1.54-.82-1.52-1.47,1.69.71,2.75,2.33,4.18,3.42.51.44,1.33,1,1.51,1.57C190.77,75.52,190.52,75.24,190.33,75Zm-70.46,0c.38-.67,1.23-.92,1.84-1.37.39-.14,1.18-1.11,1.43-.59-.75.4-1.23,1.16-2,1.47C120.83,74.69,120.1,75.56,119.87,75Zm3.29-2.45c.41-.51,1.23-.62,1.65-1.19,1-.55,1.8-1.47,2.93-1.78.71-.37,1.37-.82,2-1.26a19.34,19.34,0,0,1,2.27-1c.72-.1,1.22-.8,2-.93,1.94-.42,3.8-1.16,5.71-1.72.75-.2,1.5-.35,2.26-.57A33.09,33.09,0,0,1,145.75,63a59.63,59.63,0,0,1,6.53-.77,24.6,24.6,0,0,1,4.93-.12,15.3,15.3,0,0,1,4.67.67c.16.46-.95-.11-1.29,0a67.35,67.35,0,0,0-8.87-.15,28.09,28.09,0,0,0-6.51,1.12c-1.9.51-3.79,1.08-5.71,1.51-.84.35-1.77.44-2.62.79a32.48,32.48,0,0,0-3.46,1.26c-.76.21-1.38.68-2.12.94a10.76,10.76,0,0,1-1.94,1.07c-.87.45-1.67,1-2.52,1.46a7.06,7.06,0,0,0-2.06,1.35c-.45.13-1.26,1-1.62.51Zm60.79-3A38.88,38.88,0,0,0,180,67.18,4.62,4.62,0,0,1,178.06,66a7.76,7.76,0,0,0-2.35-1.27c-.49,0-.68-.84-.15-.38a5.74,5.74,0,0,1,2.13,1.05c.82.21,1.44.87,2.28,1a16.25,16.25,0,0,0,2.63,1.79c.51.57,1.32.88,1.78,1.41C184.24,69.76,184.07,69.67,184,69.6ZM123.86,69c.36-.64,1.42-.89,2-1.43.85-.53,1.78-.95,2.63-1.49.63-.51,1.52-.55,2.19-1,.93-.41,1.9-.73,2.79-1.22.92-.17,1.75-.62,2.65-.88a23.12,23.12,0,0,1,2.48-.64,35.77,35.77,0,0,1,3.6-1.11c.85-.26,1.74-.4,2.59-.65,1.43,0,2.78-.59,4.21-.6.17.45-1.15.45-1.56.61a44.05,44.05,0,0,1-4.71.93c-.78.25-1.53.54-2.32.74s-1.73.49-2.61.73a16.17,16.17,0,0,1-2.25.78,39.93,39.93,0,0,0-4.42,1.77c-1,.29-2,.85-3,1.24-.74.54-1.65.79-2.4,1.34C125.13,68.33,124.49,69,123.86,69Zm49.41-5.35c-.86-.16-1.62-.58-2.48-.75-.9-.36-1.84-.64-2.77-.93-1.7-.4-3.43-.71-5.16-1-1-.24.48-.31.8-.18,1.05.27,2.15.24,3.2.51a6.3,6.3,0,0,1,2.43.68,15,15,0,0,0,2.33.82,12.67,12.67,0,0,1,2.51,1c.06.23-.74,0-.86-.1Zm-8.85-.31c-.22-.08-1.5-.2-.88-.42.42.21,1.51.1,1.53.51A.87.87,0,0,1,164.42,63.37Zm-4.55-2.69c-.8-.12-1.61-.32-2.41-.38a8.64,8.64,0,0,1,2.59,0,4.42,4.42,0,0,1,1.89.45A8,8,0,0,1,159.87,60.68Zm-3.35-.32c-.56-.39.84-.26.13,0Zm-6.92-.27c.46-.17,1.67-.38,1.77-.08A4.1,4.1,0,0,1,149.6,60.09Zm2.29,0c.5-.11,1.63-.2,1.83.08A4.69,4.69,0,0,1,151.89,60.05Zm43.5,89.22c-.13-.48-.8.53-.1.13l.06-.06ZM97.65,102.05c.24-.39-1.17.27-.2.08l.11,0Zm.13-2.32c-.62-.37-.44.3.09.09v0Zm0-.49c-.62-.36-.44.3.09.1v0Zm.73-.6c-.14-.53-1.25-.74-.49-.07C98.13,98.67,98.42,98.89,98.51,98.64Zm1.83-5.94c-.23-.4-1,.49-.19.19C100.23,92.85,100.33,92.8,100.34,92.7Zm81.53-28.47c-.68-.37-.39.22.12.1ZM126,63.88c-.27-.44-1.1.07-.31.1C125.81,64,126,64,126,63.88Zm.46-.57c.23-.31,1.39-.12.45-.38C126.52,62.73,125.68,64,126.5,63.31Zm52.5-.55c-.15-.42-.75.27-.1.09Zm-48.54-1.57c-.43-.73-.16,1.08.07.11Zm43.36-1c-.36-.32-1.08.1-.23,0h.12ZM136,59.36c-.23-.39-1.23-.67-.51-.06C135.58,59.38,135.94,59.61,136,59.36Zm32.9-1.11c-.11-.33-1-.76-.7,0C168.48,58,168.63,58.61,168.88,58.25ZM164.05,57c-.34-.43-.87.08-1.22.06A2.78,2.78,0,0,0,164.05,57Zm-16.84-.13c-.2-.34-.94.06-.24.12C147,57,147.2,57,147.21,56.91ZM149,56.8c-.24-.31-1.62-.12-.6,0C148.56,56.8,148.83,57,149,56.8Zm58.08,74.07c-.52-.54.32-.57.14,0h-.14ZM143.3,56.62c.31-.35.88.11.19,0h-.09Z"/></g><g id="Layer_2-2" data-name="Layer 2"><g id="Layer_1-2-2" data-name="Layer 1-2"><path class="cls-4" d="M175.89,94.16h-1.67a8.55,8.55,0,0,0,.39.83q4.08,7.16,8.14,14.31a6.52,6.52,0,0,1,.66,1.7c.09.41.26.42.55.33.76-.25,1-.09,1,.69v2c1-.11,1-.11,1,.83v1.27c0,.75,0,.78-.84.67v.38c0,.54-.17.8-.72.8a11.75,11.75,0,0,1-1.67-.08.59.59,0,0,0-.72.41s0,0,0,0c-.16.53-.36,1-.58,1.67l.73-.06a11.14,11.14,0,0,1,9.31,3,3.85,3.85,0,0,1,.6.78c.31.57.11.9-.54.9h-2q5,3.8,2.35,9.15a6.22,6.22,0,0,1-6.51,3.36c-4.16-.69-6-3.36-5.78-7.44h-1.81c-.58,0-.85,0-.81-.71-.77.35-1.61.3-1.92,1.33s-1.51,1.39-2.56,1.39c-3.19,0-6.39.06-9.57-.14a25.2,25.2,0,0,1-4.46-1.07,5.43,5.43,0,0,0-1.13-.18h-16a16.62,16.62,0,0,0-2.43.39c-.08,0-.19,0-.21.08-.31.91-1,.65-1.69.68-1,.07-2,.17-3,.33-.2,0-.42.36-.5.6a6.67,6.67,0,0,1-12.67-.06,6.11,6.11,0,0,1-.2-1.35c0-.34-.12-.55-.48-.58-.53,0-1.06-.13-1.58-.13s-.79-.29-.65-.85.12-1.06.2-1.59a5.38,5.38,0,0,1,1.19-2.89,7.38,7.38,0,0,0,.46-.68H117c-.38,0-.52.14-.5.51s0,.9,0,1.35c-1,.32-1.41,0-1.42-.9v-1.39c0-1,.29-1.27,1.39-1.11,0,.59.34.63.81.62s1.24,0,1.81,0a1,1,0,0,0,.58-.18c-.17-.11-.33-.24-.5-.33-1.21-.65-2.39-1.29-3.54-1.93a.73.73,0,0,1-.47-.77v-2c0-.38-.12-.79.3-1.1.09-.06.06-.33.06-.49v-9.23a6,6,0,0,0-.37-1.61,1.19,1.19,0,0,1,.24-1.28.89.89,0,0,0,.16-.52V96.05c0-.54-.18-.63-.67-.6a2,2,0,0,1-2.34-1.65,2.15,2.15,0,0,1,0-.62,2.07,2.07,0,0,1,1.27-1.65,10.93,10.93,0,0,1,4.16-1.3c2.93-.38,5.87-.82,8.81-1,3.1-.16,6.22,0,9.32,0,2.62,0,5.23.08,7.85.12,4.28.08,8.57.11,12.85.26a18.06,18.06,0,0,1,3.26.63c2.72.58,5.43,1.18,8.15,1.81,2.39.52,4.77,1,7.15,1.56A2.69,2.69,0,0,1,176,94ZM155.14,106V93.85c0-.5-.17-.66-.67-.66H148c-.55,0-.73.17-.72.73A2.32,2.32,0,0,1,145,96.31h-1.85l-12.8.3a2.31,2.31,0,0,1-2.4-2.2v-.09c0-.43-.12-.61-.6-.54-3.43.47-6.86.91-10.28,1.36-.45.06-.55.32-.54.71v7.73a.65.65,0,0,0,.46.74,1.07,1.07,0,0,1,.52.57c.77,2.07,1.53,4.14,2.26,6.22a.79.79,0,0,0,.91.62H130a3.73,3.73,0,0,1,.74,0c.9.23,1.35.91,1.35,2.14,0,.47.11.65.61.62a1.82,1.82,0,0,1,1.75,1.17,1.74,1.74,0,0,1-.3,2c-.3.34-.24.53,0,.9a30.88,30.88,0,0,1,1.47,2.8,12.69,12.69,0,0,0,2.31,3.89,1.62,1.62,0,0,0,1,.41h6.11c.56,0,.73-.16.73-.71v-6.23c0-1.35,0-1.37-1.36-1.39-.55,0-.77-.22-.73-.76,0-.36.1-.86-.09-1.07a2.18,2.18,0,0,1-.35-1.68c0-1.55.63-2.19,2.15-2.18,2.1,0,4.19,0,6.29,0,.49,0,.67-.14.74-.63.16-1.41.39-2.82.57-4.22a1.14,1.14,0,0,1,1.1-1.19,1.17,1.17,0,0,1,.46.08Zm11.77,20.58a6.48,6.48,0,0,0,.57-.33c.72-.52,1.42-1.06,2.15-1.55,1.1-.73,2.23-1.42,3.32-2.15a1,1,0,0,0,.3-.56c.37-2.39.75-4.78,1.09-7.17.17-1.2.32-2.4.38-3.62.07-.95-.1-1-1-.86a13.3,13.3,0,0,1-1.66.25.59.59,0,0,1-.45-.36.84.84,0,0,1,.29-.58,1.61,1.61,0,0,1,.61-.15c.5-.1,1-.22,1.53-.29.37,0,.41-.25.36-.55-.14-.8-.26-1.6-.39-2.39-.36-2.3-.71-4.59-1.08-6.89-.24-1.56-.49-3.11-.72-4.67a.61.61,0,0,0-.61-.62h-.09c-2.11-.1-4.21-.26-6.33-.38-2.72-.19-5.49-.35-8.23-.54-.77,0-.81,0-.81.75v18.68a1,1,0,0,0,.38.44,2.65,2.65,0,0,0,.68.14c-.08-.69-.14-1.3-.22-1.93s-.15-1.1-.24-1.65c-.12-.83.17-1.35.84-1.44,1.08-.16,1.57.18,1.68,1.12q.44,3.56.9,7.1c.14,1,.45,1.24,1.45,1.24h5.78c1.19,0,1.19,0,1.18,1.16,0,1,0,1-1,1-.51,0-.67.19-.66.67v6.11ZM133.77,95.73v-.11h5.65c1.88,0,3.53-.1,5.24-.1a2.82,2.82,0,0,0,.91-.17,1.44,1.44,0,0,0,.74-1.56c-.18-.54-.69-.26-1-.25-3.92.09-7.84.21-11.77.31-1.33,0-2.65.09-4,.1-.49,0-.6.18-.49.64a1.42,1.42,0,0,0,1.44,1.16Zm14.11,17.89h3.62c.56,0,.49-.42.54-.77s-.12-.49-.46-.48H145a.9.9,0,0,0-.9.6c-.21.56-.19.63.41.64Zm-23.53-.06h3.16c.45,0,.56-.2.55-.6s0-.64-.5-.63h-6.74c-.14,0-.37.11-.39.21a.91.91,0,0,0,.76,1Zm33.08,1.75h-.12c0,.21-.05.42-.05.62V125a2,2,0,0,0,0,.35c.11.51.52.39.9.4s.45-.2.45-.51v-4.83a1.13,1.13,0,0,0-.25-.53c-.11-.19-.31-.35-.35-.54C157.81,118,157.64,116.66,157.43,115.31Zm-9.78-.23h3.45a.67.67,0,0,0,.75-.58.37.37,0,0,0,0-.11c0-.52-.43-.35-.69-.35h-6.84c-.34,0-.6,0-.61.48s.19.57.6.56ZM121,114c.09.9.19,1,.9,1h5.6c.37,0,.63-.07.63-.53s-.27-.47-.62-.47H121Zm-2.12,3.23c-.23-.59-.28-1.28-.62-1.47a2.26,2.26,0,0,0-1.58,0c-.15,0-.12.75-.12,1.17,0,.09.19.26.29.26C117.48,117.24,118.1,117.24,118.88,117.24Zm12.31-3.68c-.07-.66-.22-1.13-.85-1.2a4.86,4.86,0,0,0-1.32,0c-.14,0-.32.32-.35.51s-.15.65.29.68C129.73,113.62,130.45,113.56,131.19,113.56ZM128.92,115c.81-.11,1.45-.17,2.09-.3a.57.57,0,0,0,.35-.39A.51.51,0,0,0,131,114h-2c-.42,0-.35.37-.31.6s.24.35.3.45Zm8,15.61v-.25h-3.17c-.06,0-.21.27-.17.35a.52.52,0,0,0,.37.24,9.65,9.65,0,0,0,1.19-.14A13.47,13.47,0,0,0,137,130.61ZM117.36,115c.19-.11.69.25.67-.34a.65.65,0,0,0-.57-.71.71.71,0,0,0-.25,0c-.34,0-.69-.06-.68.5S116.91,115,117.36,115Zm.19-1.46c0-.81-.18-1.21-.61-1.2s-.41.42-.41.71C116.54,113.85,117.12,113.47,117.55,113.54Zm1.34,16v.26c.47.1.9.22,1.42.29.08,0,.26-.15.25-.21s-.12-.33-.19-.33C119.86,129.53,119.38,129.55,118.89,129.55Zm-2.18-18.94h-.17a5.89,5.89,0,0,0,0,.84c0,.09.22.15.33.22,0-.11.14-.23.12-.32A5.94,5.94,0,0,0,116.71,110.61Zm38.06,1.06h.28v-1.42h0Zm28.8,5-.52-.76-.27.81Zm-60.25-.85v-.17h-1.45v.17Z"/></g></g><path class="cls-4" d="M93.59,35.6H92V33.38H93.5a7.88,7.88,0,0,1-.41-1,3.47,3.47,0,0,1-.14-1,3,3,0,0,1,1.27-2.55A6.18,6.18,0,0,1,98,27.84a10.38,10.38,0,0,1,4.08.78,13,13,0,0,1,3.34,2.09,21.45,21.45,0,0,1,2.75,2.81H105A12.06,12.06,0,0,0,101.88,31a7.46,7.46,0,0,0-3.53-.89,3.42,3.42,0,0,0-2,.48,1.5,1.5,0,0,0-.68,1.3,2.76,2.76,0,0,0,.12.82,3,3,0,0,0,.3.7h2.13V35.6H96.31V46H93.59Z"/><path class="cls-4" d="M110.75,35.6h-1.91V46h-2.7V43.43a6.13,6.13,0,0,1-1.46.57,8.12,8.12,0,0,1-1.86.18,5.39,5.39,0,0,1-2.08-.4,3.41,3.41,0,0,1-1.5-1.23,3.47,3.47,0,0,1-.57-2,3.38,3.38,0,0,1,.56-2,3.64,3.64,0,0,1,1.53-1.28,5.3,5.3,0,0,1,2.26-.45c.55,0,1,0,1.48,0a5.24,5.24,0,0,1,1,.12l-.2,2.17a7.7,7.7,0,0,0-1.66-.17h-.26l1.88,2.37a5.37,5.37,0,0,0,.45-.35,5.16,5.16,0,0,0,.42-.4v-5H97.92V33.38h12.83Zm-9.45,4.92a1.27,1.27,0,0,0,.52,1.19,2.49,2.49,0,0,0,1.34.32,3.74,3.74,0,0,0,.75-.07l-2-2.57A1.28,1.28,0,0,0,101.3,40.52Z"/><path class="cls-4" d="M110.46,33.38h11.29V35.6H110.46Zm11.21,6.25a1.52,1.52,0,0,0-.51-.08,1.93,1.93,0,0,0-.86.22,2.11,2.11,0,0,0-.86.77,5.55,5.55,0,0,0-.71,1.64l-2.53-.77a7.12,7.12,0,0,1,.45-1.23,3.32,3.32,0,0,0-.66-.4,1.81,1.81,0,0,0-.76-.15,1.33,1.33,0,0,0-1,.33,1.15,1.15,0,0,0-.35.84,2.05,2.05,0,0,0,.3,1.06,5.74,5.74,0,0,0,1,1.13c.46.41,1.07.92,1.86,1.52l-1.77,1.8A26,26,0,0,1,113,44.24a7.74,7.74,0,0,1-1.34-1.82,4,4,0,0,1-.43-1.82,3.2,3.2,0,0,1,.53-1.93,3,3,0,0,1,1.34-1,4.28,4.28,0,0,1,1.59-.31,5.59,5.59,0,0,1,1.77.26,6.26,6.26,0,0,1,1.55.78,4.58,4.58,0,0,1,3-1,4.84,4.84,0,0,1,1.26.15Z"/><path class="cls-4" d="M137,35.6h-6.51v2.82a4.27,4.27,0,0,1,2.22-.57A3.11,3.11,0,0,1,136,41.2a6.71,6.71,0,0,1-.34,2,8.1,8.1,0,0,1-1.08,2.22l-2.37-1.32a8.54,8.54,0,0,0,.76-1.29,3.2,3.2,0,0,0,.32-1.38,1.42,1.42,0,0,0-.32-1,1.13,1.13,0,0,0-.81-.3,1.62,1.62,0,0,0-.91.28,3.83,3.83,0,0,0-.75.61v5h-2.72V43.39a5.83,5.83,0,0,1-1.34.59,5.7,5.7,0,0,1-1.57.2,5.14,5.14,0,0,1-2-.4,3.28,3.28,0,0,1-1.47-1.23,3.61,3.61,0,0,1-.54-2,3.39,3.39,0,0,1,2.06-3.23,5.25,5.25,0,0,1,2.25-.45c.37,0,.75,0,1.13,0a6.32,6.32,0,0,1,.91.13l-.2,2.24a6.34,6.34,0,0,0-1.44-.16,2.51,2.51,0,0,0-1.48.38,1.39,1.39,0,0,0,0,2.15,2.12,2.12,0,0,0,1.1.3,3,3,0,0,0,1.5-.37,5.15,5.15,0,0,0,1.14-.9V35.6h-7.7V33.38H137Z"/><path class="cls-4" d="M126.78,45.82a6.6,6.6,0,0,1,2.35-.47,3.58,3.58,0,0,1,2.54.86,2.89,2.89,0,0,1,.92,2.2,2.73,2.73,0,0,1-1,2.13,4,4,0,0,1-2.71.84,7.6,7.6,0,0,1-2.61-.42,7.21,7.21,0,0,1-2.12-1.17A14.54,14.54,0,0,1,122.35,48l1.84-1.33a10.24,10.24,0,0,0,2.31,2,4.41,4.41,0,0,0,2.25.62,1.9,1.9,0,0,0,1.07-.26.81.81,0,0,0,.38-.75.78.78,0,0,0-.35-.72,1.64,1.64,0,0,0-.84-.21,3.48,3.48,0,0,0-.79.09,4.15,4.15,0,0,0-.73.23Z"/><path class="cls-4" d="M136.73,35.6V33.38h15.21V35.6H150V46h-2.71V39.55a1.9,1.9,0,0,0-.84.26,2.43,2.43,0,0,0-.82.79,5.24,5.24,0,0,0-.66,1.58l-2.53-.77a6.37,6.37,0,0,1,.44-1.23,2.84,2.84,0,0,0-.66-.4,1.79,1.79,0,0,0-.75-.15,1.34,1.34,0,0,0-1,.33,1.15,1.15,0,0,0-.35.84,2,2,0,0,0,.31,1.06,5.33,5.33,0,0,0,1,1.13c.46.41,1.08.92,1.86,1.52l-1.77,1.8a26,26,0,0,1-2.31-2.07,7.67,7.67,0,0,1-1.33-1.82,3.91,3.91,0,0,1-.44-1.82,3.2,3.2,0,0,1,.53-1.93,3,3,0,0,1,1.34-1,4.28,4.28,0,0,1,1.59-.31,5.59,5.59,0,0,1,1.77.26,6.26,6.26,0,0,1,1.55.78,4.58,4.58,0,0,1,3-1h0V35.6Z"/><path class="cls-4" d="M167,41.7a2.8,2.8,0,0,1-.95,2.24,4,4,0,0,1-2.72.8,5.7,5.7,0,0,1-2.38-.49,5.88,5.88,0,0,1-2.11-1.76,15.44,15.44,0,0,1-2-3.57l2.33-.89a11.59,11.59,0,0,0,1.78,3.3,2.78,2.78,0,0,0,2.16,1.13,1,1,0,0,0,1.17-1.15,2.43,2.43,0,0,0-.65-1.68,7.5,7.5,0,0,1-1.51.19L162,37.67a3.1,3.1,0,0,0,1.62-.39,1.08,1.08,0,0,0,.43-.91.75.75,0,0,0-.42-.76,1.9,1.9,0,0,0-.9-.21,4.07,4.07,0,0,0-1.21.18,6.72,6.72,0,0,0-1.11.47l-.76-2a9,9,0,0,1,1.51-.57,7.13,7.13,0,0,1,2-.27,3.65,3.65,0,0,1,2.64.89,3,3,0,0,1,.92,2.25,3,3,0,0,1-1.09,2.38l.16.18a5,5,0,0,0,.57.06c.2,0,.43,0,.69,0a8.06,8.06,0,0,0,1.13-.07,4.47,4.47,0,0,0,1-.25v-3h-1.3V33.38h11.87V35.6h-1.9V46h-2.71V35.6H171.9V46h-2.7V40.88a4,4,0,0,1-.89.22c-.3,0-.61,0-.92,0l-.46,0A5.46,5.46,0,0,1,167,41.7Z"/><path class="cls-4" d="M192.92,35.6V46h-2.71V41.23a8.56,8.56,0,0,1-1.13.17c-.38,0-.78.05-1.18.05a9.45,9.45,0,0,1-2.2-.22,8.51,8.51,0,0,1-1.5-.49l-.43.23c.5.56,1.08,1.15,1.74,1.78s1.35,1.22,2.07,1.8l-1.72,1.76c-1.11-1-2.1-2-3-2.88a25.54,25.54,0,0,1-2-2.28,3.75,3.75,0,0,1-.6-1,2.53,2.53,0,0,1-.13-.77,1.7,1.7,0,0,1,.35-1,1.42,1.42,0,0,1,1.25-.51,2.28,2.28,0,0,1,1.59.6,2.86,2.86,0,0,0,.32-.83,4.46,4.46,0,0,0,.09-.91,4.13,4.13,0,0,0-.14-1.09h-4.09V33.38h15.33V35.6Zm-5.26,3.62c.48,0,.92,0,1.32,0a8.14,8.14,0,0,0,1.23-.25V35.6h-4a5,5,0,0,1,.13.67,7,7,0,0,1,0,.85,4,4,0,0,1-.13,1.09,2.81,2.81,0,0,1-.33.87c.26,0,.54.08.81.1A8.45,8.45,0,0,0,187.66,39.22Z"/><path class="cls-4" d="M198.86,35.6V46h-2.71V35.6h-1.62V33.38h6.25V35.6Z"/><path class="cls-4" d="M200.48,33.38h12.78V35.6h-1.9V46h-2.71V40.6h-3.19v.53a1.62,1.62,0,0,1-.35,1.16,1.34,1.34,0,0,1-1,.35,2.17,2.17,0,0,1-1-.27,4.41,4.41,0,0,1-1-.71,4.23,4.23,0,0,1-.74-1,2,2,0,0,1-.3-1,1.62,1.62,0,0,1,.27-.91,1.33,1.33,0,0,1,1.17-.42h6.11V35.6h-8.17Z"/></g></g></svg>