<svg xmlns="http://www.w3.org/2000/svg" xmlns:xlink="http://www.w3.org/1999/xlink" viewBox="0 0 697.35 453.22"><defs><style>.cls-1{fill:none;}.cls-2{clip-path:url(#clip-path);}.cls-3{fill:#f6f2f9;}.cls-4{fill:#fff;}</style><clipPath id="clip-path" transform="translate(-0.55)"><rect class="cls-1" width="797.33" height="513"/></clipPath></defs><g id="Layer_2" data-name="Layer 2"><g id="Layer_1-2" data-name="Layer 1"><g class="cls-2"><path class="cls-3" d="M697.9,396.87l-26.43-26.46,25.45-83.89-16.16-5.6L580.18,60.74C606.62,48,662.21,0,647,0H48A32,32,0,0,0,16.07,31.92V281.49H.55V374H17.71v37.16H5.13v42.1H62.24c-.05-1.21-.09-2.43-.09-3.65a82.48,82.48,0,1,1,165,0c0,1.22,0,2.44-.09,3.65H629.56l29.63-58.08,20.44,20.46M163.18,325.68H23.43V317.5H163.18Zm80.58-58.91H192.89l-29-129.72a5.6,5.6,0,0,0-6.67-4.24l-7.44,1.66a5.61,5.61,0,0,0-4.23,6.68l28,125.62H155.34a55.16,55.16,0,0,0-19.07,3.44L111.35,63.83h224V411.12H297.66a55.28,55.28,0,0,0,2-14.57V322.74A56.09,56.09,0,0,0,243.76,266.77Zm-80.58,32.72v8.19H23.43v-8.19ZM487.06,411.12a27.08,27.08,0,0,0,.37-4.25V339.43a27,27,0,0,0-26.9-26.94H424L384.8,137.05a5.6,5.6,0,0,0-6.67-4.24l-7.44,1.66a5.62,5.62,0,0,0-4.24,6.68L404.7,312.49H385.2a27,27,0,0,0-26.9,26.94v67.44a27.08,27.08,0,0,0,.37,4.25h-9.15V63.83H539.84L598.1,228.89l-25.86-22.33a8.16,8.16,0,0,0-10.48-.16L553.69,213,516.1,202.25l-27-38.48a13.28,13.28,0,0,0-2.15-2.33,18.8,18.8,0,0,0-9.8-6.31c-13.95-3.49-34.18,4.1-42.41,28.06-11.12,33-13.52,54.51-9.29,90.86,4.66,24,20.05,28.38,34.08,28.83a21.55,21.55,0,0,0,2.55.17H529.7l37.63,84.33a20.38,20.38,0,0,0,13.94,11.51l-3.2,12.23ZM594.53,348l-32.94-73.79a20.41,20.41,0,0,0-18.65-12.11H482.88c0-17.82,3.34-36.35,6.54-52.35l7.95,11.31a13.12,13.12,0,0,0,7.11,5.07l25.07,7.14a8.17,8.17,0,0,0,12.27,10.35l6.25-5.08,3.82,1.08a12.69,12.69,0,0,0,3.58.51,13,13,0,0,0,12.82-15.43L609.07,260l4.85,13.71Zm29.18-100.1s-39.23-108.42-50.26-142.65-1.64-40.91-1.64-40.91l78.46,172.11ZM195.06,18.82H598.78V27H195.06Zm-66.2,0h34.32V27H128.86Z" transform="translate(-0.55)"/></g><path class="cls-4" d="M531.15,124.68a36.06,36.06,0,0,1-.18,3.61c-.12,1.21-.3,2.39-.53,3.58s-.53,2.35-.87,3.5-.76,2.29-1.22,3.41A36,36,0,0,1,526.8,142a33.36,33.36,0,0,1-1.85,3.1,35.62,35.62,0,0,1-2.15,2.9c-.77.94-1.57,1.83-2.42,2.68s-1.75,1.66-2.68,2.43-1.9,1.48-2.9,2.15-2,1.29-3.09,1.86-2.15,1.08-3.26,1.54-2.25.87-3.4,1.22-2.32.64-3.51.88-2.37.41-3.56.53-2.4.18-3.61.18-2.4-.06-3.6-.18-2.39-.3-3.57-.53-2.35-.53-3.5-.88-2.29-.76-3.4-1.22-2.2-1-3.27-1.54-2.09-1.19-3.09-1.86-2-1.39-2.9-2.15-1.82-1.58-2.67-2.43A34.22,34.22,0,0,1,466,148a35.39,35.39,0,0,1-4-6c-.57-1.06-1.08-2.15-1.55-3.26s-.86-2.25-1.21-3.41-.64-2.32-.88-3.5-.41-2.37-.53-3.58a36.06,36.06,0,0,1-.17-3.61c0-1.2,0-2.4.17-3.61s.3-2.39.53-3.57.53-2.35.88-3.5.76-2.3,1.21-3.4,1-2.21,1.55-3.28,1.18-2.09,1.85-3.09,1.39-2,2.16-2.91a36,36,0,0,1,2.42-2.67c.85-.86,1.74-1.66,2.67-2.43a35.62,35.62,0,0,1,2.9-2.15q1.5-1,3.09-1.86c1.07-.57,2.16-1.08,3.27-1.55a36.08,36.08,0,0,1,3.4-1.21,35.12,35.12,0,0,1,3.5-.88,35.72,35.72,0,0,1,3.57-.53q1.8-.18,3.6-.18c1.21,0,2.41.06,3.61.18a36.89,36.89,0,0,1,7.07,1.41c1.15.35,2.28.75,3.4,1.21s2.19,1,3.26,1.55,2.09,1.19,3.09,1.86a35.62,35.62,0,0,1,2.9,2.15c.93.77,1.82,1.57,2.68,2.43s1.65,1.74,2.42,2.67,1.48,1.91,2.15,2.91a34.56,34.56,0,0,1,1.85,3.09c.57,1.07,1.09,2.16,1.55,3.28a35.16,35.16,0,0,1,1.22,3.4c.34,1.15.64,2.32.87,3.5s.41,2.38.53,3.57S531.15,123.48,531.15,124.68Z" transform="translate(-0.55)"/></g></g></svg>