<svg xmlns="http://www.w3.org/2000/svg" viewBox="0 0 87.99 47.94"><defs><style>.a{fill:#fff;}</style></defs><path class="a" d="M87.83,38.15a4.27,4.27,0,0,0-.66-.86C84.3,34.46,80.78,33.62,76.88,34l-.74.09c.24-.69.46-1.26.64-1.84a.65.65,0,0,1,.81-.5c.61.06,1.23.09,1.84.09s.84-.29.79-.89c0-.14,0-.27,0-.42.88.13.92.09.93-.74v-1.4c0-1,0-1-1.11-.92,0-.74,0-1.47,0-2.21s-.26-1-1.1-.76c-.32.1-.5.09-.6-.36a7.06,7.06,0,0,0-.73-1.88q-4.5-7.92-9-15.82a10,10,0,0,1-.44-.91H70l.08-.24a3.33,3.33,0,0,0-.72-.38c-2.63-.59-5.27-1.15-7.9-1.72-3-.65-6-1.31-8.95-1.95a20.73,20.73,0,0,0-3.61-.7C44.14.35,39.41.31,34.68.23,31.79.18,28.9.12,26,.09c-3.43,0-6.87-.18-10.3,0C12.46.25,9.21.73,6,1.16a12.1,12.1,0,0,0-4.6,1.43A2.27,2.27,0,0,0,0,4.44,2.23,2.23,0,0,0,2.59,7c.54,0,.75.07.74.67,0,2.89,0,5.78,0,8.67a.92.92,0,0,1-.17.57,1.31,1.31,0,0,0-.27,1.42,7,7,0,0,1,.41,1.78c0,3.4,0,6.8,0,10.2,0,.18,0,.47-.07.54-.46.34-.32.8-.33,1.22,0,.74,0,1.49,0,2.23a.81.81,0,0,0,.51.85c1.32.7,2.62,1.41,3.92,2.13a6.49,6.49,0,0,1,.55.36,1,1,0,0,1-.63.2c-.68,0-1.36,0-2,0s-.94,0-.9-.68c-1.22-.18-1.54.08-1.54,1.23,0,.51,0,1,0,1.53,0,1,.49,1.37,1.57,1,0-.49,0-1,0-1.5s.14-.58.56-.56c.59,0,1.19,0,1.78,0h1.2a7.47,7.47,0,0,1-.51.75A6,6,0,0,0,6,42.78c-.09.59-.09,1.19-.22,1.76s.09.94.72.94,1.16.1,1.74.14c.41,0,.51.27.54.65A6.7,6.7,0,0,0,9,47.76c0,.07.05.12.07.18A7,7,0,0,1,8.81,46a7.27,7.27,0,0,1,14.53-.34c0-.07.08-.13.11-.13,1.17,0,2.33,0,3.5,0v.27c-.66.09-1.31.19-2,.27a11.74,11.74,0,0,1-1.33.13.51.51,0,0,1-.31-.17,6.92,6.92,0,0,1-.19,1.59c.12-.21.29-.4.44-.43,1.09-.17,2.19-.29,3.29-.36.72,0,1.53.23,1.87-.75,0,0,.15-.08.23-.09a16.73,16.73,0,0,1,2.69-.43c5.91,0,11.81,0,17.72,0a5.92,5.92,0,0,1,1.25.2,29,29,0,0,0,4.93,1.18c3.51.22,7.05.18,10.57.15,1.17,0,2.44-.3,2.85-1.61.35-1.14,1.27-1.09,2.13-1.47-.06.76.36.8.89.78s1,0,1.54,0a7.87,7.87,0,0,1,12-5.57h1.68C88,39.15,88.18,38.78,87.83,38.15Zm-9.94-8.58.58.84-.88.05ZM18.76,5.25c1.46,0,2.92-.07,4.39-.11,4.32-.12,8.65-.25,13-.35.38,0,.95-.32,1.15.28a1.59,1.59,0,0,1-.82,1.72,3.05,3.05,0,0,1-1,.19c-1.93.06-3.86.11-5.79.13s-4.16,0-6.24,0v.12H19.81A1.55,1.55,0,0,1,18.22,6C18.1,5.45,18.21,5.25,18.76,5.25ZM4.4,23.72l.18,0a9.14,9.14,0,0,1,.33.87c0,.1-.08.23-.13.36-.12-.08-.35-.15-.36-.25A5.75,5.75,0,0,1,4.4,23.72Zm.44,1.87c.47,0,.71.43.66,1.32-.46-.08-1.1.34-1.11-.54C4.39,26.05,4.25,25.6,4.84,25.59Zm.29,1.8a.71.71,0,0,1,.91.76c0,.65-.53.26-.74.38-.49,0-.92.08-.93-.59S4.76,27.44,5.13,27.39Zm-.39,3.55c-.11,0-.32-.19-.32-.29,0-.46,0-1.25.12-1.29a2.48,2.48,0,0,1,1.76,0c.37.21.43,1,.68,1.62C6.12,31,5.43,31,4.74,30.94ZM8.53,45.21C8,45.13,7.48,45,7,44.89l0-.29c.54,0,1.07,0,1.61,0,.08,0,.2.23.21.36S8.62,45.22,8.53,45.21Zm.15-19.39c0-.11.29-.22.44-.23h7.44c.55,0,.55.3.56.69s-.1.67-.6.66c-1.16,0-2.33,0-3.5,0H9.53A1,1,0,0,1,8.68,25.82Zm1.6,3.64v-.18h1.6v.18Zm6.23-.92H10.39c-.83,0-.94-.12-1-1.11h7.17c.38,0,.67,0,.68.52S16.92,28.54,16.51,28.54Zm3.92-.34c-.7.14-1.41.21-2.3.33-.07-.11-.25-.27-.28-.46s-.12-.64.34-.66c.74,0,1.48-.07,2.21,0a.56.56,0,0,1,.42.39A.64.64,0,0,1,20.43,28.2Zm-2.58-2c0-.21.23-.54.39-.56a5.49,5.49,0,0,1,1.46,0c.68.08.85.6.92,1.33-.85,0-1.65,0-2.45,0C17.68,26.9,17.81,26.45,17.85,26.18Zm24.7,2.43h-7.5c-.44,0-.65-.13-.65-.62s.29-.53.67-.53h7.56c.29,0,.78-.19.76.38A.75.75,0,0,1,42.55,28.61ZM43,27c-1.34,0-2.67,0-4,0h0c-1.27,0-2.55,0-3.82,0-.66,0-.69-.09-.46-.71a1,1,0,0,1,1-.66c2.44,0,4.88,0,7.32,0,.38,0,.56.14.51.53S43.66,27,43,27ZM47,24.89l-.31,0c.09-.53.17-1.06.26-1.58H47Zm.14-7c0,.21,0,.41,0,.71-.31-.09-.55-.18-.79-.23a1.27,1.27,0,0,0-1.73,1.23c-.2,1.55-.45,3.1-.64,4.66-.06.54-.27.71-.8.7-2.32,0-4.63-.05-7-.05-1.69,0-2.4.7-2.38,2.41a2.42,2.42,0,0,0,.39,1.86c.21.23.11.78.08,1.18,0,.6.21.83.82.84,1.49,0,1.49,0,1.49,1.54,0,2.29,0,4.59,0,6.88,0,.61-.18.8-.8.79-2.25,0-4.5,0-6.76,0a1.81,1.81,0,0,1-1.1-.46,13.84,13.84,0,0,1-2.55-4.3c-.49-1-1.05-2.08-1.63-3.09-.21-.38-.27-.59.06-1a1.92,1.92,0,0,0,.33-2.25A2,2,0,0,0,22.18,28c-.55,0-.69-.17-.69-.69C21.5,26,21,25.24,20,25a3.73,3.73,0,0,0-.82-.06c-3.4,0-6.8,0-10.2,0a.86.86,0,0,1-1-.68c-.81-2.3-1.65-4.59-2.5-6.88A1.18,1.18,0,0,0,5,16.75a.71.71,0,0,1-.52-.81q0-4.26,0-8.54c0-.44.09-.72.59-.79,3.79-.49,7.58-1,11.36-1.5.54-.08.64.12.66.6a2.55,2.55,0,0,0,2.66,2.52c4.71-.09,9.42-.21,14.14-.33.68,0,1.36,0,2,0a2.56,2.56,0,0,0,2.53-2.64c0-.62.19-.81.8-.8,2.38,0,4.76,0,7.14,0,.55,0,.74.17.73.73Q47.09,11.54,47.09,17.91Zm3.32,22.51c-.38,0-.84.12-1-.45a2.48,2.48,0,0,1,0-.38V29.53c0-.22,0-.45,0-.68l.14,0c.2,1.49.39,3,.62,4.46,0,.21.27.39.39.6a1.28,1.28,0,0,1,.27.58c0,1.78,0,3.56,0,5.34C50.91,40.19,50.82,40.44,50.41,40.42Zm18.29-16c-.08,1.33-.24,2.66-.43,4-.37,2.64-.79,5.28-1.2,7.92a1,1,0,0,1-.33.62c-1.21.81-2.46,1.57-3.67,2.38-.81.54-1.58,1.14-2.37,1.71a7.19,7.19,0,0,1-.64.37V39.8c0-1.72,0-3.44,0-5.16,0-.54.16-.75.72-.75,1.08,0,1.09,0,1.09-1.12,0-1.29,0-1.29-1.3-1.29H54.18c-1.1,0-1.45-.28-1.59-1.37q-.51-3.91-1-7.84c-.13-1-.66-1.41-1.86-1.24-.74.1-1.07.68-.92,1.59.1.61.18,1.22.26,1.83l.25,2.13a3.08,3.08,0,0,1-.76-.15,1.26,1.26,0,0,1-.42-.49c-.06-.09,0-.24,0-.37V5.3c0-.87.05-.89.91-.83,3,.21,6.06.39,9.09.59,2.33.14,4.65.31,7,.43a.68.68,0,0,1,.77.68c.26,1.72.53,3.44.8,5.16.4,2.54.79,5.07,1.19,7.61.14.88.28,1.76.43,2.64.06.34,0,.56-.4.61-.57.08-1.13.21-1.69.32a1.69,1.69,0,0,0-.67.17.87.87,0,0,0-.32.64.63.63,0,0,0,.5.4,14,14,0,0,0,1.82-.28C68.59,23.25,68.76,23.34,68.7,24.39Z"/></svg>