<svg xmlns="http://www.w3.org/2000/svg" viewBox="0 0 247.32 247.44"><defs><style>.a{fill:#fff;}</style></defs><path class="a" d="M226.17,54.57C188-2,111-17,54.42,21.08S-17,136.27,21.15,192.86s115.22,71.63,171.74,33.51S264.34,111.17,226.17,54.57ZM123.66,204.51a80.79,80.79,0,1,1,80.79-80.79A80.79,80.79,0,0,1,123.66,204.51Z"/><circle class="a" cx="123.66" cy="123.72" r="33.92"/><rect class="a" x="119.82" y="42.93" width="7.04" height="47.03"/><rect class="a" x="120.14" y="157.48" width="7.04" height="47.03"/><rect class="a" x="62.86" y="100.21" width="7.04" height="47.03" transform="translate(190.11 57.34) rotate(90)"/><rect class="a" x="177.57" y="100.21" width="7.04" height="47.03" transform="translate(304.81 -57.37) rotate(90)"/></svg>